<svg width="25" height="25" viewBox="0 0 25 25" fill="none" xmlns="http://www.w3.org/2000/svg">
<path d="M12.4614 13.876C15.9498 13.876 18.7792 11.0465 18.7792 7.55812C18.7792 4.06975 15.9498 1.25967 12.4614 1.25967C8.97301 1.25967 6.14355 4.08913 6.14355 7.55812C6.14355 11.0271 8.97301 13.876 12.4614 13.876V13.876ZM12.4614 2.90696C15.0195 2.90696 17.1125 4.99998 17.1125 7.55812C17.1125 10.1163 15.0195 12.2093 12.4614 12.2093C9.90325 12.2093 7.81022 10.1163 7.81022 7.55812C7.81022 4.99998 9.90325 2.90696 12.4614 2.90696Z" fill="#545454"/>
<path d="M1.53109 23.7403H23.4691C23.9342 23.7403 24.3024 23.3721 24.3024 22.9069C24.3024 18.5465 20.7559 14.9806 16.376 14.9806H8.62411C4.26365 14.9806 0.697754 18.5271 0.697754 22.9069C0.697754 23.3721 1.06597 23.7403 1.53109 23.7403V23.7403ZM8.62411 16.6473H16.376C19.5543 16.6473 22.1706 19.0116 22.5776 22.0736H2.42256C2.82954 19.031 5.44582 16.6473 8.62411 16.6473Z" fill="#545454"/>
</svg>
