<svg xmlns="http://www.w3.org/2000/svg"
     height="512"
     viewBox="0 0 511.489 511.489"
     width="512">
    <path d="M511.314 440.016l-55.86-208.46c-1.07-4-5.184-6.374-9.186-5.303a7.5 7.5 0 0 0-5.303 9.186l34.52 128.823-84.527 22.66-53.635-200.175 84.533-22.652 10.66 39.775a7.5 7.5 0 1 0 14.489-3.883l-32.42-120.98c-1.07-4-5.183-6.372-9.186-5.303l-89.63 24.013.003-54.823a7.5 7.5 0 0 0-7.5-7.5H205.758a7.5 7.5 0 0 0-7.5 7.5l.002 70.664H160.7a7.5 7.5 0 1 0 0 15h37.56v96.06H88.2v-96.06H128a7.5 7.5 0 1 0 0-15H88.2V42.894a7.5 7.5 0 0 0-7.5-7.5H7.5a7.5 7.5 0 0 0-7.5 7.5v424.58a7.5 7.5 0 0 0 7.5 7.5l300.77.003c4.572-.43 7.073-2.93 7.503-7.503l-.003-100.897a7.5 7.5 0 1 0-15 0v59.226h-87.5V84.565h87.5v249.322a7.5 7.5 0 1 0 15 0v-169.63l82.036 306.172c1.36 5.56 5.4 6.273 9.186 5.304l99.02-26.53c4.303-1.598 6.07-4.66 5.3-9.186zm-313.056 19.96H88.2v-107.3h110.05zM15 84.565h58.2v341.238H15zm183.26 155.053v98.06H88.2v-98.06zM73.2 50.394v19.17H15v-19.17zM15 440.803h58.2v19.17H15zm285.77 0v19.17h-87.5v-19.17zm-87.5-371.238V50.397h87.5v19.168zm188.777 20.568l15.937 59.47-84.532 22.652-15.936-59.475zm8.317 369.17L394.842 401.4l84.527-22.66 15.516 57.904zM110.8 191.112a7.5 7.5 0 0 0 7.5 7.5h52.1a7.5 7.5 0 1 0 0-15h-52.1a7.5 7.5 0 0 0-7.5 7.5zm7.5 199.224h52.1a7.5 7.5 0 1 0 0-15h-52.1a7.5 7.5 0 1 0 0 15zm52.1 22.658h-52.1a7.5 7.5 0 1 0 0 15h52.1a7.5 7.5 0 1 0 0-15zm215.544-212.47a7.5 7.5 0 0 0-5.303 9.186l36.598 136.583c1.376 5.56 5.4 6.273 9.186 5.304a7.5 7.5 0 0 0 5.303-9.186L395.14 205.828a7.5 7.5 0 0 0-9.186-5.303z"/>
</svg>
