<svg width="35" height="43" viewBox="0 0 35 43" fill="none" xmlns="http://www.w3.org/2000/svg">
<path d="M34.4614 21.9509C34.0471 21.3683 33.0115 20.7857 32.1829 20.7857L5.46316 19.0381L4.42746 15.9311C4.42746 15.7369 4.22035 15.3486 3.80612 15.3486L1.32048 14.5719C0.906252 14.3777 0.284785 14.5719 0.0776685 15.1544C-0.129448 15.5428 0.0776686 16.1254 0.699017 16.3196L2.7703 16.9021L3.806 20.2032L7.94856 33.6019C8.24471 34.6155 8.87237 35.4486 9.68845 36.0506C8.76048 36.7652 8.15365 37.8332 8.15365 39.0391C8.15365 41.1751 10.0178 42.9227 12.2962 42.9227C14.5746 42.9227 16.4388 41.1751 16.4388 39.0391C16.4388 38.3303 16.2193 37.6719 15.8609 37.0972H23.854C23.4957 37.6721 23.2761 38.3303 23.2761 39.0391C23.2761 41.1751 25.1403 42.9227 27.4187 42.9227C29.6992 42.9227 31.5612 41.1751 31.5612 39.0391C31.5612 37.9924 31.1097 37.0428 30.3847 36.3419C31.3996 35.736 32.1598 34.7962 32.3918 33.6019L34.8775 24.4752C35.0828 23.5043 35.0828 22.7275 34.4614 21.9509ZM12.2964 40.981C11.0536 40.981 10.2252 40.2043 10.2252 39.0392C10.2252 37.874 11.0536 37.0974 12.2964 37.0974C13.3321 37.0974 14.3677 37.874 14.3677 39.0392C14.3677 40.2043 13.5391 40.981 12.2964 40.981ZM27.4169 40.981C26.1741 40.981 25.3456 40.2043 25.3456 39.0392C25.3456 37.874 26.1741 37.0974 27.4169 37.0974C28.6617 37.0974 29.4882 37.874 29.4882 39.0392C29.4882 40.2043 28.6597 40.981 27.4169 40.981ZM30.5239 33.2136C30.3498 34.1962 29.426 35.002 28.2765 35.2428C27.9989 35.1864 27.7131 35.1554 27.4169 35.1554C26.9881 35.1554 26.5821 35.235 26.1927 35.3496H13.5205C13.1311 35.235 12.7251 35.1554 12.2963 35.1554C12.199 35.1554 12.1078 35.1767 12.0126 35.1826C11.1136 34.8584 10.3286 34.0933 10.0158 33.2136L6.28758 21.1741L31.9718 22.9217C32.386 22.9217 32.5931 23.1159 32.8002 23.3101C33.0073 23.5042 33.0073 23.8926 33.0073 24.0867L30.5239 33.2136Z" fill="#545454"/>
<path d="M18.1601 15.4727C18.5506 15.8633 19.1838 15.8633 19.5743 15.4727L25.9383 9.10877C26.3288 8.71825 26.3288 8.08508 25.9383 7.69456C25.5477 7.30403 24.9146 7.30403 24.524 7.69456L18.8672 13.3514L13.2103 7.69456C12.8198 7.30403 12.1866 7.30403 11.7961 7.69456C11.4056 8.08508 11.4056 8.71825 11.7961 9.10877L18.1601 15.4727ZM17.8672 4.85682e-08L17.8672 14.7656L19.8672 14.7656L19.8672 -4.85682e-08L17.8672 4.85682e-08Z" fill="#545454"/>
</svg>
