<svg xmlns="http://www.w3.org/2000/svg" viewBox="0 0 512 512">
  <path d="M85.072 454.93a10.07 10.07 0 0 0-7.069-2.93c-2.63 0-5.2 1.07-7.07 2.93a10.08 10.08 0 0 0-2.93 7.07 10.07 10.07 0 0 0 2.93 7.069 10.08 10.08 0 0 0 7.07 2.931 10.07 10.07 0 0 0 7.069-2.931c1.86-1.86 2.93-4.44 2.93-7.07s-1.07-5.2-2.93-7.07zm384.452-271.992a10.06 10.06 0 0 0-7.07-2.93c-2.63 0-5.2 1.07-7.07 2.93a10.08 10.08 0 0 0-2.93 7.07c0 2.63 1.07 5.2 2.93 7.07a10.08 10.08 0 0 0 7.07 2.931c2.64 0 5.2-1.07 7.07-2.93s2.94-4.44 2.94-7.07a10.06 10.06 0 0 0-2.94-7.07zM509.065 2.93A10 10 0 0 0 501.992 0L255.998.013c-5.522 0-10 4.478-10 10V38.6l-94.8 25.4a10 10 0 0 0-7.071 12.247l49.127 183.342-42.5 42.5c-5.4-7.898-14.5-13.092-24.764-13.092H30.006c-16.542 0-30 13.458-30 30V482c0 16.542 13.457 30 30 30h95.998c14.053 0 25.875-9.716 29.115-22.78l11.9 10.37a50.38 50.38 0 0 0 33.118 12.412h301.867c5.522 0 10-4.478 10-10V10a10.01 10.01 0 0 0-2.929-7.071zM136.002 482c0 5.513-4.486 10-10 10H30.005c-5.514 0-10-4.486-10-10V319.005c0-5.514 4.486-10 10-10h38V424.2c0 5.522 4.478 10 10 10s10-4.478 10-10V309.005h38c5.514 0 10 4.486 10 10V482zm30.043-401.26L246 59.315V96.37l-6.702 1.796c-2.563.687-4.746 2.362-6.072 4.66s-1.686 5.026-1 7.588c3.843 14.34-4.698 29.134-19.04 32.977a10 10 0 0 0-7.066 12.267l38.98 144.338h-20.07l-10.343-40.464c-.33-1.288-.905-2.475-1.676-3.507L166.045 80.74zM246 142.23v84.38l-18.24-67.535c7.62-3.934 13.854-9.82 18.24-16.846zM389.663 492H200.125a30.39 30.39 0 0 1-19.974-7.485L156 463.455V325.147l43.658-43.658 7.918 30.98a10 10 0 0 0 9.688 7.523l196.604.012a14.02 14.02 0 0 1 14 14 14.02 14.02 0 0 1-14 14H313.13c-5.522 0-10 4.478-10 10s4.478 10 10 10h132.04a14.02 14.02 0 0 1 14 14 14.02 14.02 0 0 1-14 14H313.13c-5.522 0-10 4.478-10 10s4.478 10 10 10h110.643a14.02 14.02 0 0 1 14 14 14.02 14.02 0 0 1-14 14H313.13c-5.522 0-10 4.478-10 10s4.478 10 10 10h76.533a14.02 14.02 0 0 1 14 14 14.02 14.02 0 0 1-14 13.996zm102.33 0h-71.36a33.79 33.79 0 0 0 0-28h3.14c18.747 0 34-15.252 34-34 0-5.468-1.305-10.635-3.6-15.217 14.396-3.954 25.005-17.15 25.005-32.782a33.82 33.82 0 0 0-6.71-20.255v-126.74c0-5.522-4.478-10-10-10s-10 4.478-10 10V348.8a34.01 34.01 0 0 0-7.29-.795h-.328a33.79 33.79 0 0 0 3.028-14c0-18.748-15.252-34-34-34h-16.075c17.07-7.32 29.057-24.286 29.057-44.005 0-26.4-21.468-47.858-47.857-47.858S331.137 229.6 331.137 256c0 19.72 12 36.685 29.057 44.005H305.53V109.863C323.394 105.97 337.5 91.875 341.382 74h75.22c3.892 17.865 17.988 31.96 35.852 35.853v31.1c0 5.522 4.478 10 10 10s10-4.478 10-10v-40.018c0-5.522-4.478-10-10-10-14.847 0-26.924-12.08-26.924-26.925 0-5.522-4.478-10-10-10h-93.076c-5.522 0-10 4.478-10 10 0 14.847-12.078 26.925-26.924 26.925-5.522 0-10 4.478-10 10v199.07H266V20h225.994v472zM378.996 283.858c-15.36 0-27.857-12.497-27.857-27.857s12.497-27.858 27.857-27.858S406.853 240.64 406.853 256s-12.496 27.858-27.857 27.858z"/>
</svg>
