<svg xmlns="http://www.w3.org/2000/svg" viewBox="0 0 26 26">
  <path d="M17.31 5.495V5.21a.75.75 0 0 0-.75-.75H1.75a.75.75 0 0 0-.75.75V18.79a.75.75 0 0 0 .75.75h3.095c.33 1.15 1.378 2 2.633 2s2.304-.85 2.633-2h7.708c.33 1.15 1.378 2 2.633 2s2.304-.85 2.633-2h.994c.03 0 .057-.014.087-.018.03.004.056.018.087.018a.75.75 0 0 0 .75-.75v-5.74c0-3.956-3.387-7.21-7.7-7.554zm6.162 7.054h-2.817c-.72-.197-.864-1.484-.864-3.488V7.665c2.044.948 3.483 2.763 3.68 4.884zm-4.68-5.26V9.06c0 2.174.13 4.152 1.704 4.478.033.007.067.01.102.01H23.5v4.5h-.418c-.33-1.15-1.378-2-2.633-2s-2.304.85-2.633 2H10.11A2.73 2.73 0 0 0 9.548 17h7.013c.2 0 .372-.12.452-.292.177-.137.298-.342.298-.583V6.998c.513.05 1.007.15 1.48.29zM15.81 16H2.5V5.96H15.81V16zM2.5 17h2.906a2.73 2.73 0 0 0-.562 1.039H2.5V17zm4.978 3.04a1.25 1.25 0 1 1 0-2.5 1.25 1.25 0 0 1 1.25 1.248c-.001.693-.56 1.252-1.25 1.252zm12.974 0a1.25 1.25 0 1 1 0-2.5 1.25 1.25 0 1 1 0 2.5z"/>
</svg>
