<svg xmlns="http://www.w3.org/2000/svg" height="48" width="48">
    <path d="M44 40H4c-2.206 0-4-1.794-4-4V12c0-2.206 1.794-4 4-4h40c2.206 0 4 1.794 4 4v24c0 2.206-1.794 4-4 4zM4 10c-1.103 0-2 .897-2 2v24c0 1.103.897 2 2 2h40c1.103 0 2-.897 2-2V12c0-1.103-.897-2-2-2H4zm20 19.2L6.457 17.84a1 1 0 0 1 1.086-1.68L24 26.8l16.457-10.65a1 1 0 1 1 1.086 1.68L24 29.2zM6 34a1 1 0 0 1-.556-1.832l9-6a1 1 0 1 1 1.11 1.664l-9 6A1 1 0 0 1 6 34zm36 0a.98.98 0 0 1-.554-.168l-9-6a1 1 0 1 1 1.11-1.664l9 6A1 1 0 0 1 41.999 34z"/>
</svg>
