<svg width="25" height="25" viewBox="0 0 25 25" fill="none" xmlns="http://www.w3.org/2000/svg">
<path d="M5.04701 16.6183C7.51282 19.5659 10.4811 21.8867 13.869 23.5288C15.1589 24.1401 16.8839 24.8653 18.8058 24.9896C18.925 24.9948 19.0389 25 19.1581 25C20.448 25 21.484 24.5545 22.3284 23.6376C22.3336 23.6324 22.3439 23.622 22.3491 23.6117C22.6496 23.2491 22.9915 22.9227 23.3489 22.5756C23.5924 22.3425 23.8411 22.099 24.0793 21.8504C25.1827 20.7004 25.1827 19.2395 24.069 18.1258L20.9556 15.0124C20.4272 14.4633 19.7953 14.1732 19.1322 14.1732C18.4691 14.1732 17.8319 14.4633 17.288 15.0073L15.4335 16.8618C15.2625 16.7634 15.0864 16.6753 14.9206 16.5924C14.7134 16.4888 14.5217 16.3904 14.3508 16.2816C12.662 15.2093 11.1287 13.8106 9.66263 12.0131C8.92185 11.0754 8.42455 10.288 8.07747 9.48508C8.56442 9.04476 9.02028 8.58371 9.4606 8.13303C9.61601 7.97244 9.7766 7.81185 9.93719 7.65126C10.4967 7.09179 10.7971 6.44426 10.7971 5.78637C10.7971 5.12847 10.5018 4.48094 9.93719 3.92147L8.39347 2.37775C8.21216 2.19644 8.04121 2.02031 7.86508 1.839C7.52318 1.48674 7.16574 1.12412 6.81348 0.797762C6.27991 0.274554 5.6531 0 4.99003 0C4.33213 0 3.70014 0.274555 3.14585 0.802942L1.20842 2.74036C0.503906 3.44488 0.105024 4.29963 0.0221401 5.28906C-0.0762852 6.52714 0.151647 7.84293 0.742199 9.43328C1.64875 11.8939 3.01634 14.1784 5.04701 16.6183ZM1.28613 5.39784C1.34829 4.70887 1.61248 4.13386 2.10979 3.63655L4.03685 1.70949C4.33731 1.41939 4.66885 1.26917 4.99003 1.26917C5.30602 1.26917 5.6272 1.4194 5.92248 1.71985C6.26955 2.04103 6.59591 2.37775 6.94817 2.73518C7.1243 2.91649 7.30561 3.0978 7.48692 3.28429L9.03064 4.82801C9.35182 5.14919 9.51759 5.47555 9.51759 5.79673C9.51759 6.1179 9.35182 6.44426 9.03064 6.76544C8.87005 6.92603 8.70946 7.09179 8.54888 7.25238C8.06711 7.73933 7.61643 8.20037 7.11912 8.6407C7.10876 8.65106 7.10358 8.65624 7.09322 8.6666C6.66326 9.09656 6.7306 9.5058 6.8342 9.81662C6.83938 9.83216 6.84456 9.84252 6.84974 9.85806C7.24863 10.8164 7.80292 11.7281 8.66802 12.816C10.2221 14.7327 11.8591 16.2194 13.6618 17.3643C13.8846 17.5093 14.1229 17.6233 14.3456 17.7373C14.5528 17.8409 14.7445 17.9393 14.9154 18.0481C14.9362 18.0584 14.9517 18.0688 14.9724 18.0792C15.1434 18.1672 15.3091 18.2087 15.4749 18.2087C15.8893 18.2087 16.1587 17.9445 16.2468 17.8564L18.1842 15.919C18.4846 15.6185 18.811 15.4579 19.1322 15.4579C19.5259 15.4579 19.8471 15.7014 20.0491 15.919L23.1728 19.0375C23.7944 19.6591 23.7892 20.3326 23.1573 20.9905C22.9397 21.2236 22.7118 21.4463 22.4683 21.6794C22.1057 22.0317 21.7275 22.3943 21.3856 22.8036C20.7899 23.4459 20.0802 23.7464 19.1633 23.7464C19.0752 23.7464 18.982 23.7412 18.8939 23.736C17.1948 23.6272 15.6148 22.9642 14.4285 22.3995C11.2064 20.8402 8.37793 18.6283 6.03126 15.8206C4.09902 13.4946 2.79877 11.3293 1.93884 9.00849C1.40527 7.58392 1.20324 6.43908 1.28613 5.39784Z" fill="#545454"/>
</svg>
