<svg width="13" height="13" viewBox="0 0 13 13" fill="none" xmlns="http://www.w3.org/2000/svg">
<path d="M5.36215 0C2.405 0 0 2.40515 0 5.35615C0 8.32015 2.405 10.7121 5.36215 10.7121C6.64193 10.7121 7.81603 10.2588 8.74002 9.50635C8.8302 9.4329 8.96177 9.43638 9.04446 9.51817V9.51817C9.13067 9.60345 9.13225 9.74221 9.04799 9.82942L8.92383 9.95795C8.76611 10.1139 8.76611 10.3611 8.92383 10.5171L11.2895 12.8829C11.3684 12.9609 11.4606 13 11.5658 13C11.6709 13 11.776 12.9609 11.8417 12.8829L12.8931 11.83C13.0377 11.674 13.0378 11.4271 12.88 11.2841L10.5143 8.91795C10.4355 8.83995 10.3433 8.80115 10.2381 8.80115C10.133 8.80115 10.0279 8.83995 9.96217 8.91795L9.8459 9.03852C9.7586 9.12905 9.61365 9.12922 9.52613 9.03891V9.03891C9.44569 8.95589 9.44266 8.82537 9.51542 8.73554C10.2658 7.80909 10.7246 6.63501 10.7246 5.35615C10.7246 2.40515 8.3193 0 5.36215 0ZM5.36215 0.792949C7.88559 0.792949 9.93598 2.8471 9.93598 5.3691C9.93598 7.8911 7.88559 9.93205 5.36215 9.93205C2.83871 9.93205 0.788574 7.8911 0.788574 5.3691C0.788574 2.8471 2.83871 0.792949 5.36215 0.792949ZM5.37524 2.41795C4.12667 2.41795 3.00962 3.21115 2.58905 4.38115C2.52333 4.55015 2.61528 4.758 2.79928 4.81C2.83871 4.823 2.87819 4.83615 2.91762 4.83615C3.06219 4.83615 3.19362 4.74505 3.24619 4.60205C3.56162 3.70505 4.42895 3.0941 5.37524 3.0941C5.55924 3.0941 5.71716 2.93815 5.71716 2.75615C5.71716 2.57415 5.55924 2.41795 5.37524 2.41795ZM2.87809 5.6291C2.69409 5.6291 2.53643 5.77205 2.53643 5.96705V6.0191C2.54957 6.2011 2.69429 6.35705 2.89144 6.35705C3.07544 6.35705 3.2331 6.2011 3.2331 6.0191V5.98C3.2331 5.785 3.08858 5.6291 2.89144 5.6291H2.87809ZM10.0026 9.99613C10.1402 9.86005 10.3619 9.86085 10.4985 9.99792L11.8163 11.3203C11.9535 11.4581 11.9527 11.6811 11.8145 11.8179V11.8179C11.677 11.954 11.4553 11.9533 11.3187 11.8162L10.0008 10.4939C9.86353 10.3561 9.86432 10.1329 10.0026 9.99613V9.99613Z" fill="#545454"/>
</svg>
