<svg width="18" height="18" viewBox="0 0 18 18" fill="none" xmlns="http://www.w3.org/2000/svg">
<path d="M7.42452 0C3.33 0 0 3.33021 0 7.41621C0 11.5202 3.33 14.8321 7.42452 14.8321C9.19652 14.8321 10.8222 14.2045 12.1016 13.1626C12.2264 13.0609 12.4086 13.0658 12.5231 13.179C12.6425 13.2971 12.6447 13.4892 12.528 13.61L12.3561 13.7879C12.1377 14.0039 12.1377 14.3461 12.3561 14.5621L15.6317 17.8379C15.7409 17.9459 15.8685 18 16.0141 18C16.1597 18 16.3052 17.9459 16.3962 17.8379L17.852 16.38C18.0522 16.164 18.0523 15.8221 17.8339 15.6241L14.5583 12.3479C14.4491 12.2399 14.3214 12.1862 14.1759 12.1862C14.0303 12.1862 13.8848 12.2399 13.7938 12.3479L13.6328 12.5149C13.5119 12.6402 13.3112 12.6405 13.19 12.5154C13.0786 12.4005 13.0744 12.2197 13.1752 12.0954C14.2142 10.8126 14.8494 9.18693 14.8494 7.41621C14.8494 3.33021 11.519 0 7.42452 0ZM7.42452 1.09793C10.9185 1.09793 13.7575 3.94214 13.7575 7.43414C13.7575 10.9261 10.9185 13.7521 7.42452 13.7521C3.93053 13.7521 1.09187 10.9261 1.09187 7.43414C1.09187 3.94214 3.93053 1.09793 7.42452 1.09793ZM7.44264 3.34793C5.71385 3.34793 4.16717 4.44621 3.58484 6.06621C3.49385 6.30021 3.62116 6.588 3.87593 6.66C3.93053 6.678 3.98519 6.69621 4.03978 6.69621C4.23996 6.69621 4.42194 6.57007 4.49473 6.37207C4.93148 5.13007 6.1324 4.28414 7.44264 4.28414C7.69741 4.28414 7.91607 4.06821 7.91607 3.81621C7.91607 3.56421 7.69741 3.34793 7.44264 3.34793ZM3.98505 7.79414C3.73028 7.79414 3.51197 7.99207 3.51197 8.26207V8.33414C3.53017 8.58614 3.73056 8.80207 4.00353 8.80207C4.2583 8.80207 4.4766 8.58614 4.4766 8.33414V8.28C4.4766 8.01 4.2765 7.79414 4.00353 7.79414H3.98505ZM13.8498 13.8408C14.0403 13.6524 14.3473 13.6535 14.5364 13.8433L16.361 15.6743C16.551 15.865 16.5499 16.1739 16.3586 16.3633C16.1681 16.5517 15.8612 16.5507 15.672 16.3609L13.8473 14.53C13.6572 14.3392 13.6583 14.0302 13.8498 13.8408Z" fill="#545454"/>
</svg>
