<svg width="28" height="25" viewBox="0 0 28 25" fill="none" xmlns="http://www.w3.org/2000/svg">
<g clip-path="url(#clip0)">
<path d="M26.6666 7.34948C26.346 6.90566 25.5446 6.46175 24.9035 6.46175L4.22745 5.13021L3.42601 2.76299C3.42601 2.61505 3.26575 2.31917 2.94521 2.31917L1.0218 1.72741C0.701266 1.57947 0.220369 1.72741 0.0601006 2.17123C-0.100168 2.46711 0.0601007 2.91102 0.540906 3.05896L2.14368 3.50278L2.94512 6.01793L6.15067 16.2265C6.37983 16.9987 6.86552 17.6334 7.49702 18.0921C6.77894 18.6366 6.30937 19.4503 6.30937 20.3691C6.30937 21.9965 7.75188 23.328 9.51492 23.328C11.278 23.328 12.7205 21.9965 12.7205 20.3691C12.7205 19.8291 12.5506 19.3274 12.2733 18.8896H18.4585C18.1812 19.3275 18.0113 19.8291 18.0113 20.3691C18.0113 21.9965 19.4538 23.328 21.2168 23.328C22.9815 23.328 24.4224 21.9965 24.4224 20.3691C24.4224 19.5716 24.073 18.8481 23.512 18.3141C24.2973 17.8525 24.8856 17.1364 25.0651 16.2265L26.9885 9.27279C27.1474 8.53309 27.1474 7.94124 26.6666 7.34948ZM9.51511 21.8486C8.55341 21.8486 7.91233 21.2569 7.91233 20.3691C7.91233 19.4814 8.55341 18.8897 9.51511 18.8897C10.3165 18.8897 11.1179 19.4814 11.1179 20.3691C11.1179 21.2569 10.4767 21.8486 9.51511 21.8486ZM21.2154 21.8486C20.2537 21.8486 19.6127 21.2569 19.6127 20.3691C19.6127 19.4814 20.2537 18.8897 21.2154 18.8897C22.1787 18.8897 22.8182 19.4814 22.8182 20.3691C22.8182 21.2569 22.1771 21.8486 21.2154 21.8486ZM23.6196 15.9306C23.485 16.6792 22.7701 17.2932 21.8806 17.4767C21.6658 17.4337 21.4447 17.4101 21.2154 17.4101C20.8837 17.4101 20.5695 17.4707 20.2682 17.558H10.4623C10.161 17.4707 9.84679 17.4101 9.51502 17.4101C9.43967 17.4101 9.36912 17.4263 9.29543 17.4308C8.59983 17.1838 7.99237 16.6008 7.75031 15.9306L4.86539 6.75763L24.7401 8.08918C25.0606 8.08918 25.2209 8.23712 25.3811 8.38506C25.5414 8.533 25.5414 8.82888 25.5414 8.97682L23.6196 15.9306Z" fill="#545454"/>
</g>
<defs>
<clipPath id="clip0">
<rect width="27.0833" height="25" fill="white"/>
</clipPath>
</defs>
</svg>
