<svg width="43" height="40" viewBox="0 0 43 40" fill="none" xmlns="http://www.w3.org/2000/svg">
<g clip-path="url(#clip0)">
<path d="M42.0101 11.7592C41.505 11.0491 40.2425 10.3388 39.2325 10.3388L6.65979 8.20834L5.39723 4.4208C5.39723 4.1841 5.14474 3.71069 4.63977 3.71069L1.60967 2.76387C1.1047 2.52717 0.347105 2.76387 0.0946206 3.47399C-0.157864 3.9474 0.0946207 4.65764 0.852074 4.89435L3.37706 5.60446L4.63963 9.6287L9.68961 25.9624C10.0506 27.198 10.8158 28.2135 11.8106 28.9474C10.6794 29.8186 9.93963 31.1205 9.93963 32.5905C9.93963 35.1944 12.2121 37.3249 14.9896 37.3249C17.7671 37.3249 20.0396 35.1944 20.0396 32.5905C20.0396 31.7265 19.772 30.9239 19.3351 30.2233H29.0791C28.6423 30.9241 28.3746 31.7265 28.3746 32.5905C28.3746 35.1944 30.6471 37.3249 33.4246 37.3249C36.2047 37.3249 38.4746 35.1944 38.4746 32.5905C38.4746 31.3146 37.9242 30.1569 37.0403 29.3025C38.2775 28.564 39.2043 27.4183 39.4871 25.9624L42.5172 14.8365C42.7675 13.6529 42.7675 12.706 42.0101 11.7592ZM14.9899 34.9578C13.4748 34.9578 12.4649 34.011 12.4649 32.5906C12.4649 31.1703 13.4748 30.2235 14.9899 30.2235C16.2525 30.2235 17.5149 31.1703 17.5149 32.5906C17.5149 34.011 16.5048 34.9578 14.9899 34.9578ZM33.4224 34.9578C31.9074 34.9578 30.8974 34.011 30.8974 32.5906C30.8974 31.1703 31.9074 30.2235 33.4224 30.2235C34.9399 30.2235 35.9474 31.1703 35.9474 32.5906C35.9474 34.011 34.9375 34.9578 33.4224 34.9578ZM37.21 25.489C36.9978 26.6868 35.8717 27.6691 34.4704 27.9627C34.132 27.894 33.7836 27.8562 33.4224 27.8562C32.8997 27.8562 32.4048 27.9531 31.9301 28.0929H16.482C16.0074 27.9531 15.5124 27.8562 14.9897 27.8562C14.8711 27.8562 14.7599 27.8821 14.6438 27.8893C13.548 27.494 12.591 26.5614 12.2097 25.489L7.6648 10.8122L38.975 12.9427C39.48 12.9427 39.7325 13.1794 39.985 13.4161C40.2375 13.6528 40.2375 14.1262 40.2375 14.3629L37.21 25.489Z" fill="#545454"/>
</g>
<defs>
<clipPath id="clip0">
<rect width="42.6667" height="40" fill="white"/>
</clipPath>
</defs>
</svg>
