<svg xmlns="http://www.w3.org/2000/svg" height="512" width="512">
  <path d="M504.4 185.065c-6.76-8.482-16.904-13.348-27.83-13.348h-98.604l-53.47-122.433c-3.315-7.6-12.157-11.06-19.75-7.743s-11.06 12.158-7.743 19.75l48.225 110.427H166.77L214.996 61.3c3.315-7.592-.15-16.434-7.743-19.75a15 15 0 0 0-19.749 7.743l-53.47 122.434H35.43c-10.926 0-21.07 4.865-27.83 13.348C.963 193.393-1.486 204.1.88 214.44l52.657 230c3.677 16.06 17.884 27.276 34.55 27.276H423.91c16.665 0 30.872-11.216 34.55-27.276l52.657-230c2.367-10.342-.082-21.048-6.72-29.376zm-80.487 256.652H88.088c-2.547 0-4.778-1.67-5.305-3.972L30.126 207.747c-.413-1.805.28-3.163.936-3.984.608-.764 1.985-2.045 4.37-2.045h85.503l-3.93 8.997c-3.315 7.592.15 16.434 7.743 19.75a14.97 14.97 0 0 0 5.995 1.258c5.782 0 11.292-3.363 13.754-9l9.173-21.003h204.662l9.173 21.003c2.462 5.638 7.972 9 13.754 9a14.94 14.94 0 0 0 5.995-1.258c7.592-3.315 11.06-12.158 7.743-19.75l-3.93-8.997h85.503c2.384 0 3.76 1.28 4.37 2.045.655.822 1.35 2.18.936 3.983l-52.657 230c-.528 2.3-2.76 3.97-5.307 3.97zM166 266.717c-8.284 0-15 6.716-15 15v110c0 8.284 6.716 15 15 15s15-6.716 15-15v-110c0-8.284-6.715-15-15-15zm90 0c-8.284 0-15 6.716-15 15v110c0 8.284 6.716 15 15 15s15-6.716 15-15v-110c0-8.284-6.716-15-15-15zm90 0c-8.284 0-15 6.716-15 15v110c0 8.284 6.716 15 15 15s15-6.716 15-15v-110c-.001-8.284-6.716-15-15-15z"/>
</svg>
