<svg xmlns="http://www.w3.org/2000/svg" viewBox="0 0 64 64">
    <path d="M46.83 55a1 1 0 0 1-.45-.11L32 47.6l-14.38 7.3a1 1 0 0 1-1.44-1.09l2.74-15.38-11.6-10.88a1 1 0 0 1-.27-1 1 1 0 0 1 .81-.68l16.07-2.25 7.18-14a1 1 0 0 1 1.78 0l7.18 14 16.07 2.25a1 1 0 0 1 .81.68 1 1 0 0 1-.27 1l-11.6 10.9 2.74 15.38a1 1 0 0 1-.99 1.18zM32 45.48a1 1 0 0 1 .45.11l13 6.6L43 38.26a1 1 0 0 1 .3-.91l10.47-9.84-14.5-2a1 1 0 0 1-.75-.53L32 12.2l-6.53 12.75a1 1 0 0 1-.75.53l-14.5 2 10.47 9.84a1 1 0 0 1 .3.91L18.5 52.2l13.05-6.6a1 1 0 0 1 .45-.11z"/>
</svg>
