<?xml version="1.0" encoding="UTF-8" standalone="no"?>
<!DOCTYPE svg PUBLIC "-//W3C//DTD SVG 1.1//EN"
 "http://www.w3.org/Graphics/SVG/1.1/DTD/svg11.dtd">
<!-- Generated by graphviz version 2.43.0 (0)
 -->
<!-- Title: G Pages: 1 -->
<svg width="1069pt" height="445pt"
 viewBox="0.00 0.00 1069.20 445.20" xmlns="http://www.w3.org/2000/svg" xmlns:xlink="http://www.w3.org/1999/xlink">
<g id="graph0" class="graph" transform="scale(1 1) rotate(0) translate(21.6 423.6)">
<title>G</title>
<polygon fill="#111111" stroke="transparent" points="-21.6,21.6 -21.6,-423.6 1047.6,-423.6 1047.6,21.6 -21.6,21.6"/>
<!-- ../subcategories/list/subcategories&#45;list.module.ts -->
<g id="node1" class="node">
<title>../subcategories/list/subcategories&#45;list.module.ts</title>
<path fill="none" stroke="#cfffac" d="M1018.33,-23C1018.33,-23 729.67,-23 729.67,-23 725.83,-23 722,-19.17 722,-15.33 722,-15.33 722,-7.67 722,-7.67 722,-3.83 725.83,0 729.67,0 729.67,0 1018.33,0 1018.33,0 1022.17,0 1026,-3.83 1026,-7.67 1026,-7.67 1026,-15.33 1026,-15.33 1026,-19.17 1022.17,-23 1018.33,-23"/>
<text text-anchor="middle" x="874" y="-7.8" font-family="Arial" font-size="14.00" fill="#cfffac">../subcategories/list/subcategories&#45;list.module.ts</text>
</g>
<!-- breadcrumbs/breadcrumbs.module.ts -->
<g id="node2" class="node">
<title>breadcrumbs/breadcrumbs.module.ts</title>
<path fill="none" stroke="#cfffac" d="M586.33,-64C586.33,-64 359.67,-64 359.67,-64 355.83,-64 352,-60.17 352,-56.33 352,-56.33 352,-48.67 352,-48.67 352,-44.83 355.83,-41 359.67,-41 359.67,-41 586.33,-41 586.33,-41 590.17,-41 594,-44.83 594,-48.67 594,-48.67 594,-56.33 594,-56.33 594,-60.17 590.17,-64 586.33,-64"/>
<text text-anchor="middle" x="473" y="-48.8" font-family="Arial" font-size="14.00" fill="#cfffac">breadcrumbs/breadcrumbs.module.ts</text>
</g>
<!-- breadcrumbs/components/breadcrumbs/breadcrumbs.component.ts -->
<g id="node3" class="node">
<title>breadcrumbs/components/breadcrumbs/breadcrumbs.component.ts</title>
<path fill="none" stroke="#cfffac" d="M678.33,-105C678.33,-105 267.67,-105 267.67,-105 263.83,-105 260,-101.17 260,-97.33 260,-97.33 260,-89.67 260,-89.67 260,-85.83 263.83,-82 267.67,-82 267.67,-82 678.33,-82 678.33,-82 682.17,-82 686,-85.83 686,-89.67 686,-89.67 686,-97.33 686,-97.33 686,-101.17 682.17,-105 678.33,-105"/>
<text text-anchor="middle" x="473" y="-89.8" font-family="Arial" font-size="14.00" fill="#cfffac">breadcrumbs/components/breadcrumbs/breadcrumbs.component.ts</text>
</g>
<!-- breadcrumbs/components/index.ts -->
<g id="node4" class="node">
<title>breadcrumbs/components/index.ts</title>
<path fill="none" stroke="#c6c5fe" d="M216.33,-105C216.33,-105 7.67,-105 7.67,-105 3.83,-105 0,-101.17 0,-97.33 0,-97.33 0,-89.67 0,-89.67 0,-85.83 3.83,-82 7.67,-82 7.67,-82 216.33,-82 216.33,-82 220.17,-82 224,-85.83 224,-89.67 224,-89.67 224,-97.33 224,-97.33 224,-101.17 220.17,-105 216.33,-105"/>
<text text-anchor="middle" x="112" y="-89.8" font-family="Arial" font-size="14.00" fill="#c6c5fe">breadcrumbs/components/index.ts</text>
</g>
<!-- breadcrumbs/components/index.ts&#45;&gt;breadcrumbs/components/breadcrumbs/breadcrumbs.component.ts -->
<g id="edge1" class="edge">
<title>breadcrumbs/components/index.ts&#45;&gt;breadcrumbs/components/breadcrumbs/breadcrumbs.component.ts</title>
<path fill="none" stroke="#757575" d="M224.13,-93.5C232.42,-93.5 240.94,-93.5 249.6,-93.5"/>
<polygon fill="#757575" stroke="#757575" points="249.82,-97 259.82,-93.5 249.82,-90 249.82,-97"/>
</g>
<!-- breadcrumbs/index.ts -->
<g id="node5" class="node">
<title>breadcrumbs/index.ts</title>
<path fill="none" stroke="#c6c5fe" d="M177.33,-64C177.33,-64 46.67,-64 46.67,-64 42.83,-64 39,-60.17 39,-56.33 39,-56.33 39,-48.67 39,-48.67 39,-44.83 42.83,-41 46.67,-41 46.67,-41 177.33,-41 177.33,-41 181.17,-41 185,-44.83 185,-48.67 185,-48.67 185,-56.33 185,-56.33 185,-60.17 181.17,-64 177.33,-64"/>
<text text-anchor="middle" x="112" y="-48.8" font-family="Arial" font-size="14.00" fill="#c6c5fe">breadcrumbs/index.ts</text>
</g>
<!-- breadcrumbs/index.ts&#45;&gt;breadcrumbs/breadcrumbs.module.ts -->
<g id="edge2" class="edge">
<title>breadcrumbs/index.ts&#45;&gt;breadcrumbs/breadcrumbs.module.ts</title>
<path fill="none" stroke="#757575" d="M185.22,-52.5C230.04,-52.5 288.95,-52.5 341.72,-52.5"/>
<polygon fill="#757575" stroke="#757575" points="341.84,-56 351.84,-52.5 341.84,-49 341.84,-56"/>
</g>
<!-- filters/components/filters/filters.component.ts -->
<g id="node6" class="node">
<title>filters/components/filters/filters.component.ts</title>
<path fill="none" stroke="#cfffac" d="M607.33,-197C607.33,-197 338.67,-197 338.67,-197 334.83,-197 331,-193.17 331,-189.33 331,-189.33 331,-181.67 331,-181.67 331,-177.83 334.83,-174 338.67,-174 338.67,-174 607.33,-174 607.33,-174 611.17,-174 615,-177.83 615,-181.67 615,-181.67 615,-189.33 615,-189.33 615,-193.17 611.17,-197 607.33,-197"/>
<text text-anchor="middle" x="473" y="-181.8" font-family="Arial" font-size="14.00" fill="#cfffac">filters/components/filters/filters.component.ts</text>
</g>
<!-- filters/components/index.ts -->
<g id="node7" class="node">
<title>filters/components/index.ts</title>
<path fill="none" stroke="#c6c5fe" d="M192.83,-166C192.83,-166 31.17,-166 31.17,-166 27.33,-166 23.5,-162.17 23.5,-158.33 23.5,-158.33 23.5,-150.67 23.5,-150.67 23.5,-146.83 27.33,-143 31.17,-143 31.17,-143 192.83,-143 192.83,-143 196.67,-143 200.5,-146.83 200.5,-150.67 200.5,-150.67 200.5,-158.33 200.5,-158.33 200.5,-162.17 196.67,-166 192.83,-166"/>
<text text-anchor="middle" x="112" y="-150.8" font-family="Arial" font-size="14.00" fill="#c6c5fe">filters/components/index.ts</text>
</g>
<!-- filters/components/index.ts&#45;&gt;filters/components/filters/filters.component.ts -->
<g id="edge3" class="edge">
<title>filters/components/index.ts&#45;&gt;filters/components/filters/filters.component.ts</title>
<path fill="none" stroke="#757575" d="M200.82,-162.08C239.24,-165.4 285.32,-169.38 328.5,-173.11"/>
<polygon fill="#757575" stroke="#757575" points="328.27,-176.6 338.53,-173.98 328.87,-169.63 328.27,-176.6"/>
</g>
<!-- filters/components/popup&#45;filters/popup&#45;filters.component.ts -->
<g id="node8" class="node">
<title>filters/components/popup&#45;filters/popup&#45;filters.component.ts</title>
<path fill="none" stroke="#cfffac" d="M649.33,-156C649.33,-156 296.67,-156 296.67,-156 292.83,-156 289,-152.17 289,-148.33 289,-148.33 289,-140.67 289,-140.67 289,-136.83 292.83,-133 296.67,-133 296.67,-133 649.33,-133 649.33,-133 653.17,-133 657,-136.83 657,-140.67 657,-140.67 657,-148.33 657,-148.33 657,-152.17 653.17,-156 649.33,-156"/>
<text text-anchor="middle" x="473" y="-140.8" font-family="Arial" font-size="14.00" fill="#cfffac">filters/components/popup&#45;filters/popup&#45;filters.component.ts</text>
</g>
<!-- filters/components/index.ts&#45;&gt;filters/components/popup&#45;filters/popup&#45;filters.component.ts -->
<g id="edge4" class="edge">
<title>filters/components/index.ts&#45;&gt;filters/components/popup&#45;filters/popup&#45;filters.component.ts</title>
<path fill="none" stroke="#757575" d="M200.82,-152.05C224.67,-151.39 251.47,-150.64 278.7,-149.88"/>
<polygon fill="#757575" stroke="#757575" points="278.84,-153.38 288.74,-149.6 278.65,-146.38 278.84,-153.38"/>
</g>
<!-- filters/directives/index.ts -->
<g id="node9" class="node">
<title>filters/directives/index.ts</title>
<path fill="none" stroke="#c6c5fe" d="M184.33,-258C184.33,-258 39.67,-258 39.67,-258 35.83,-258 32,-254.17 32,-250.33 32,-250.33 32,-242.67 32,-242.67 32,-238.83 35.83,-235 39.67,-235 39.67,-235 184.33,-235 184.33,-235 188.17,-235 192,-238.83 192,-242.67 192,-242.67 192,-250.33 192,-250.33 192,-254.17 188.17,-258 184.33,-258"/>
<text text-anchor="middle" x="112" y="-242.8" font-family="Arial" font-size="14.00" fill="#c6c5fe">filters/directives/index.ts</text>
</g>
<!-- filters/directives/is&#45;hide&#45;popup&#45;directive.directive.ts -->
<g id="node10" class="node">
<title>filters/directives/is&#45;hide&#45;popup&#45;directive.directive.ts</title>
<path fill="none" stroke="#cfffac" d="M624.33,-279C624.33,-279 321.67,-279 321.67,-279 317.83,-279 314,-275.17 314,-271.33 314,-271.33 314,-263.67 314,-263.67 314,-259.83 317.83,-256 321.67,-256 321.67,-256 624.33,-256 624.33,-256 628.17,-256 632,-259.83 632,-263.67 632,-263.67 632,-271.33 632,-271.33 632,-275.17 628.17,-279 624.33,-279"/>
<text text-anchor="middle" x="473" y="-263.8" font-family="Arial" font-size="14.00" fill="#cfffac">filters/directives/is&#45;hide&#45;popup&#45;directive.directive.ts</text>
</g>
<!-- filters/directives/index.ts&#45;&gt;filters/directives/is&#45;hide&#45;popup&#45;directive.directive.ts -->
<g id="edge5" class="edge">
<title>filters/directives/index.ts&#45;&gt;filters/directives/is&#45;hide&#45;popup&#45;directive.directive.ts</title>
<path fill="none" stroke="#757575" d="M192.23,-251.13C225.12,-253.06 264.61,-255.37 303.43,-257.64"/>
<polygon fill="#757575" stroke="#757575" points="303.63,-261.16 313.81,-258.25 304.03,-254.17 303.63,-261.16"/>
</g>
<!-- filters/directives/max&#45;height.directive.ts -->
<g id="node11" class="node">
<title>filters/directives/max&#45;height.directive.ts</title>
<path fill="none" stroke="#cfffac" d="M589.83,-238C589.83,-238 356.17,-238 356.17,-238 352.33,-238 348.5,-234.17 348.5,-230.33 348.5,-230.33 348.5,-222.67 348.5,-222.67 348.5,-218.83 352.33,-215 356.17,-215 356.17,-215 589.83,-215 589.83,-215 593.67,-215 597.5,-218.83 597.5,-222.67 597.5,-222.67 597.5,-230.33 597.5,-230.33 597.5,-234.17 593.67,-238 589.83,-238"/>
<text text-anchor="middle" x="473" y="-222.8" font-family="Arial" font-size="14.00" fill="#cfffac">filters/directives/max&#45;height.directive.ts</text>
</g>
<!-- filters/directives/index.ts&#45;&gt;filters/directives/max&#45;height.directive.ts -->
<g id="edge6" class="edge">
<title>filters/directives/index.ts&#45;&gt;filters/directives/max&#45;height.directive.ts</title>
<path fill="none" stroke="#757575" d="M192.23,-242.09C235.02,-239.7 289,-236.7 338.1,-233.96"/>
<polygon fill="#757575" stroke="#757575" points="338.39,-237.45 348.18,-233.4 338,-230.46 338.39,-237.45"/>
</g>
<!-- filters/filters.module.ts -->
<g id="node12" class="node">
<title>filters/filters.module.ts</title>
<path fill="none" stroke="#c6c5fe" d="M539.33,-23C539.33,-23 406.67,-23 406.67,-23 402.83,-23 399,-19.17 399,-15.33 399,-15.33 399,-7.67 399,-7.67 399,-3.83 402.83,0 406.67,0 406.67,0 539.33,0 539.33,0 543.17,0 547,-3.83 547,-7.67 547,-7.67 547,-15.33 547,-15.33 547,-19.17 543.17,-23 539.33,-23"/>
<text text-anchor="middle" x="473" y="-7.8" font-family="Arial" font-size="14.00" fill="#c6c5fe">filters/filters.module.ts</text>
</g>
<!-- filters/filters.module.ts&#45;&gt;../subcategories/list/subcategories&#45;list.module.ts -->
<g id="edge7" class="edge">
<title>filters/filters.module.ts&#45;&gt;../subcategories/list/subcategories&#45;list.module.ts</title>
<path fill="none" stroke="#757575" d="M547.18,-11.5C593.24,-11.5 654.55,-11.5 711.56,-11.5"/>
<polygon fill="#757575" stroke="#757575" points="711.77,-15 721.77,-11.5 711.77,-8 711.77,-15"/>
</g>
<!-- filters/index.ts -->
<g id="node13" class="node">
<title>filters/index.ts</title>
<path fill="none" stroke="#c6c5fe" d="M153.83,-23C153.83,-23 70.17,-23 70.17,-23 66.33,-23 62.5,-19.17 62.5,-15.33 62.5,-15.33 62.5,-7.67 62.5,-7.67 62.5,-3.83 66.33,0 70.17,0 70.17,0 153.83,0 153.83,0 157.67,0 161.5,-3.83 161.5,-7.67 161.5,-7.67 161.5,-15.33 161.5,-15.33 161.5,-19.17 157.67,-23 153.83,-23"/>
<text text-anchor="middle" x="112" y="-7.8" font-family="Arial" font-size="14.00" fill="#c6c5fe">filters/index.ts</text>
</g>
<!-- filters/index.ts&#45;&gt;filters/filters.module.ts -->
<g id="edge8" class="edge">
<title>filters/index.ts&#45;&gt;filters/filters.module.ts</title>
<path fill="none" stroke="#757575" d="M161.79,-11.5C219.99,-11.5 318.23,-11.5 388.56,-11.5"/>
<polygon fill="#757575" stroke="#757575" points="388.73,-15 398.73,-11.5 388.73,-8 388.73,-15"/>
</g>
<!-- filters/services/filters.service.ts -->
<g id="node14" class="node">
<title>filters/services/filters.service.ts</title>
<path fill="none" stroke="#cfffac" d="M564.83,-320C564.83,-320 381.17,-320 381.17,-320 377.33,-320 373.5,-316.17 373.5,-312.33 373.5,-312.33 373.5,-304.67 373.5,-304.67 373.5,-300.83 377.33,-297 381.17,-297 381.17,-297 564.83,-297 564.83,-297 568.67,-297 572.5,-300.83 572.5,-304.67 572.5,-304.67 572.5,-312.33 572.5,-312.33 572.5,-316.17 568.67,-320 564.83,-320"/>
<text text-anchor="middle" x="473" y="-304.8" font-family="Arial" font-size="14.00" fill="#cfffac">filters/services/filters.service.ts</text>
</g>
<!-- filters/services/index.ts -->
<g id="node15" class="node">
<title>filters/services/index.ts</title>
<path fill="none" stroke="#c6c5fe" d="M180.33,-320C180.33,-320 43.67,-320 43.67,-320 39.83,-320 36,-316.17 36,-312.33 36,-312.33 36,-304.67 36,-304.67 36,-300.83 39.83,-297 43.67,-297 43.67,-297 180.33,-297 180.33,-297 184.17,-297 188,-300.83 188,-304.67 188,-304.67 188,-312.33 188,-312.33 188,-316.17 184.17,-320 180.33,-320"/>
<text text-anchor="middle" x="112" y="-304.8" font-family="Arial" font-size="14.00" fill="#c6c5fe">filters/services/index.ts</text>
</g>
<!-- filters/services/index.ts&#45;&gt;filters/services/filters.service.ts -->
<g id="edge9" class="edge">
<title>filters/services/index.ts&#45;&gt;filters/services/filters.service.ts</title>
<path fill="none" stroke="#757575" d="M188.26,-308.5C238.98,-308.5 306.69,-308.5 363.25,-308.5"/>
<polygon fill="#757575" stroke="#757575" points="363.31,-312 373.31,-308.5 363.31,-305 363.31,-312"/>
</g>
<!-- shared/core&#45;admin-shared.module.ts -->
<g id="node16" class="node">
<title>shared/core&#45;admin-shared.module.ts</title>
<path fill="none" stroke="#cfffac" d="M202.83,-361C202.83,-361 21.17,-361 21.17,-361 17.33,-361 13.5,-357.17 13.5,-353.33 13.5,-353.33 13.5,-345.67 13.5,-345.67 13.5,-341.83 17.33,-338 21.17,-338 21.17,-338 202.83,-338 202.83,-338 206.67,-338 210.5,-341.83 210.5,-345.67 210.5,-345.67 210.5,-353.33 210.5,-353.33 210.5,-357.17 206.67,-361 202.83,-361"/>
<text text-anchor="middle" x="112" y="-345.8" font-family="Arial" font-size="14.00" fill="#cfffac">shared/core&#45;admin-shared.module.ts</text>
</g>
<!-- shared/services/categories.service.ts -->
<g id="node17" class="node">
<title>shared/services/categories.service.ts</title>
<path fill="none" stroke="#cfffac" d="M584.33,-402C584.33,-402 361.67,-402 361.67,-402 357.83,-402 354,-398.17 354,-394.33 354,-394.33 354,-386.67 354,-386.67 354,-382.83 357.83,-379 361.67,-379 361.67,-379 584.33,-379 584.33,-379 588.17,-379 592,-382.83 592,-386.67 592,-386.67 592,-394.33 592,-394.33 592,-398.17 588.17,-402 584.33,-402"/>
<text text-anchor="middle" x="473" y="-386.8" font-family="Arial" font-size="14.00" fill="#cfffac">shared/services/categories.service.ts</text>
</g>
<!-- shared/services/index.ts -->
<g id="node18" class="node">
<title>shared/services/index.ts</title>
<path fill="none" stroke="#c6c5fe" d="M184.83,-402C184.83,-402 39.17,-402 39.17,-402 35.33,-402 31.5,-398.17 31.5,-394.33 31.5,-394.33 31.5,-386.67 31.5,-386.67 31.5,-382.83 35.33,-379 39.17,-379 39.17,-379 184.83,-379 184.83,-379 188.67,-379 192.5,-382.83 192.5,-386.67 192.5,-386.67 192.5,-394.33 192.5,-394.33 192.5,-398.17 188.67,-402 184.83,-402"/>
<text text-anchor="middle" x="112" y="-386.8" font-family="Arial" font-size="14.00" fill="#c6c5fe">shared/services/index.ts</text>
</g>
<!-- shared/services/index.ts&#45;&gt;shared/services/categories.service.ts -->
<g id="edge10" class="edge">
<title>shared/services/index.ts&#45;&gt;shared/services/categories.service.ts</title>
<path fill="none" stroke="#757575" d="M192.67,-390.5C236.93,-390.5 293.06,-390.5 343.37,-390.5"/>
<polygon fill="#757575" stroke="#757575" points="343.68,-394 353.68,-390.5 343.68,-387 343.68,-394"/>
</g>
</g>
</svg>
