<svg width="343" height="101" viewBox="0 0 343 101" fill="none" xmlns="http://www.w3.org/2000/svg">
<path d="M16.9336 95H12.3516C12.0312 94.0938 11.7188 93.2695 11.4141 92.5273C11.1094 91.7773 10.7969 91.0508 10.4766 90.3477C9.95312 89.168 9.42188 88.3711 8.88281 87.957C8.35156 87.543 7.63281 87.3359 6.72656 87.3359H5.87109V92.6562C5.87109 92.9141 5.91797 93.1445 6.01172 93.3477C6.11328 93.5508 6.29297 93.7148 6.55078 93.8398C6.67578 93.8945 6.90625 93.9609 7.24219 94.0391C7.58594 94.1172 7.87109 94.1602 8.09766 94.168V95H1.19531V94.168C1.375 94.1523 1.63672 94.1289 1.98047 94.0977C2.32422 94.0664 2.56641 94.0195 2.70703 93.957C2.94141 93.8555 3.10938 93.707 3.21094 93.5117C3.32031 93.3086 3.375 93.0664 3.375 92.7852V80.7852C3.375 80.5195 3.32812 80.2891 3.23438 80.0938C3.14844 79.8984 2.97266 79.7383 2.70703 79.6133C2.49609 79.5117 2.24609 79.4219 1.95703 79.3438C1.66797 79.2656 1.41406 79.2188 1.19531 79.2031V78.3711H8.09766V79.2031C7.87891 79.2109 7.60547 79.2461 7.27734 79.3086C6.94922 79.3711 6.70703 79.4297 6.55078 79.4844C6.28516 79.5781 6.10547 79.7344 6.01172 79.9531C5.91797 80.1719 5.87109 80.4102 5.87109 80.668V86.3633H6.96094C7.25 86.3633 7.53125 86.3008 7.80469 86.1758C8.08594 86.0508 8.34375 85.8672 8.57812 85.625C8.91406 85.2812 9.18359 84.8633 9.38672 84.3711C9.58984 83.8711 9.80859 83.2695 10.043 82.5664C10.2617 81.918 10.4883 81.3164 10.7227 80.7617C10.957 80.207 11.3008 79.6953 11.7539 79.2266C12.0586 78.9141 12.418 78.668 12.832 78.4883C13.2461 78.3086 13.6953 78.2188 14.1797 78.2188C14.5156 78.2188 14.8086 78.2617 15.0586 78.3477C15.3086 78.4258 15.5195 78.5391 15.6914 78.6875C15.8477 78.8203 15.9648 78.9766 16.043 79.1562C16.1211 79.3359 16.1602 79.5312 16.1602 79.7422C16.1602 79.9141 16.1328 80.082 16.0781 80.2461C16.0312 80.4102 15.9609 80.5469 15.8672 80.6562C15.7578 80.7891 15.6367 80.8945 15.5039 80.9727C15.3711 81.043 15.1836 81.0781 14.9414 81.0781C14.6836 81.0781 14.457 81.0352 14.2617 80.9492C14.0742 80.8633 13.9102 80.7461 13.7695 80.5977C13.6289 80.4492 13.5 80.2773 13.3828 80.082C13.2734 79.8789 13.168 79.6758 13.0664 79.4727C12.8477 79.6211 12.6602 79.8047 12.5039 80.0234C12.3555 80.2422 12.2227 80.4766 12.1055 80.7266C11.9883 80.9766 11.8828 81.2422 11.7891 81.5234C11.7031 81.8047 11.6016 82.1172 11.4844 82.4609C11.3906 82.75 11.2812 83.0742 11.1562 83.4336C11.0312 83.7852 10.8867 84.1133 10.7227 84.418C10.5508 84.7461 10.3477 85.0742 10.1133 85.4023C9.88672 85.7305 9.61328 86.0391 9.29297 86.3281V86.4922C10.1602 86.7344 10.8789 87.1211 11.4492 87.6523C12.0273 88.1836 12.5117 88.8672 12.9023 89.7031C13.1211 90.1797 13.3594 90.6953 13.6172 91.25C13.8828 91.7969 14.1016 92.2617 14.2734 92.6445C14.5156 93.168 14.75 93.5195 14.9766 93.6992C15.2031 93.8711 15.4336 93.9766 15.668 94.0156C15.8711 94.0469 16.0898 94.0781 16.3242 94.1094C16.5586 94.1328 16.7617 94.1523 16.9336 94.168V95ZM30.7205 95H25.072V94.2266C25.2517 94.2109 25.4353 94.1953 25.6228 94.1797C25.8181 94.1641 25.9861 94.1328 26.1267 94.0859C26.3455 94.0156 26.5134 93.8945 26.6306 93.7227C26.7478 93.543 26.8064 93.3125 26.8064 93.0312V89.3516H21.6619V92.9141C21.6619 93.1797 21.7166 93.3984 21.8259 93.5703C21.9353 93.7422 22.0994 93.875 22.3181 93.9688C22.4822 94.0469 22.658 94.1055 22.8455 94.1445C23.0408 94.1836 23.24 94.2109 23.4431 94.2266V95H17.7947V94.2266C17.9744 94.2109 18.158 94.1953 18.3455 94.1797C18.5408 94.1641 18.7087 94.1328 18.8494 94.0859C19.0681 94.0156 19.2283 93.8945 19.3298 93.7227C19.4392 93.543 19.4939 93.3125 19.4939 93.0312V85.5312C19.4939 85.2734 19.4392 85.0586 19.3298 84.8867C19.2205 84.707 19.0564 84.5703 18.8377 84.4766C18.6345 84.3828 18.4353 84.3203 18.24 84.2891C18.0525 84.2578 17.8767 84.2344 17.7127 84.2188V83.4453H23.3611V84.2188C23.1345 84.2344 22.9353 84.2539 22.7634 84.2773C22.5994 84.3008 22.447 84.3281 22.3064 84.3594C22.0877 84.4219 21.9236 84.5469 21.8142 84.7344C21.7127 84.9141 21.6619 85.1406 21.6619 85.4141V88.3906H26.8064V85.5312C26.8064 85.2734 26.7517 85.0586 26.6423 84.8867C26.533 84.707 26.3689 84.5703 26.1502 84.4766C25.947 84.3828 25.7478 84.3203 25.5525 84.2891C25.365 84.2578 25.1892 84.2344 25.0252 84.2188V83.4453H30.6736V84.2188C30.447 84.2344 30.2478 84.2539 30.0759 84.2773C29.9119 84.3008 29.7595 84.3281 29.6189 84.3594C29.4002 84.4219 29.2361 84.5469 29.1267 84.7344C29.0252 84.9141 28.9744 85.1406 28.9744 85.4141V92.9141C28.9744 93.1875 29.0212 93.4102 29.115 93.582C29.2087 93.7461 29.3689 93.875 29.5955 93.9688C29.7595 94.0469 29.9353 94.1055 30.1228 94.1445C30.3181 94.1836 30.5173 94.2109 30.7205 94.2266V95ZM45.6675 95H40.0542V94.2266C40.2339 94.2109 40.4175 94.1953 40.605 94.1797C40.8003 94.1641 40.9683 94.1328 41.1089 94.0859C41.3277 94.0156 41.4956 93.8945 41.6128 93.7227C41.73 93.543 41.7886 93.3125 41.7886 93.0312V86.9609L36.4683 92.7148V92.9141C36.4683 93.1797 36.523 93.3984 36.6323 93.5703C36.7417 93.7422 36.9058 93.875 37.1245 93.9688C37.2964 94.0469 37.4761 94.1055 37.6636 94.1445C37.8589 94.1836 38.062 94.2109 38.273 94.2266V95H32.6597V94.2266C32.8394 94.2109 33.023 94.1953 33.2105 94.1797C33.4058 94.1641 33.5737 94.1328 33.7144 94.0859C33.9331 94.0156 34.0933 93.8945 34.1948 93.7227C34.3042 93.543 34.3589 93.3125 34.3589 93.0312V85.5312C34.3589 85.2734 34.3042 85.0586 34.1948 84.8867C34.0855 84.707 33.9214 84.5703 33.7027 84.4766C33.4995 84.3828 33.3003 84.3203 33.105 84.2891C32.9175 84.2578 32.7417 84.2344 32.5777 84.2188V83.4453H38.1909V84.2188C37.9644 84.2344 37.7652 84.2539 37.5933 84.2773C37.4292 84.3008 37.2769 84.3281 37.1362 84.3594C36.9175 84.4219 36.7534 84.5469 36.6441 84.7344C36.5425 84.9141 36.4917 85.1406 36.4917 85.4141V91.3906L41.812 85.625C41.812 85.2812 41.7573 85.0273 41.648 84.8633C41.5386 84.6992 41.3745 84.5703 41.1558 84.4766C40.9527 84.3828 40.7495 84.3203 40.5464 84.2891C40.3511 84.2578 40.1714 84.2344 40.0073 84.2188V83.4453H45.6206V84.2188C45.3941 84.2344 45.1948 84.2539 45.023 84.2773C44.8589 84.3008 44.7066 84.3281 44.5659 84.3594C44.3472 84.4219 44.1831 84.5469 44.0737 84.7344C43.9722 84.9141 43.9214 85.1406 43.9214 85.4141V92.9141C43.9214 93.1875 43.9683 93.4102 44.062 93.582C44.1558 93.7461 44.3159 93.875 44.5425 93.9688C44.7066 94.0469 44.8823 94.1055 45.0698 94.1445C45.2652 94.1836 45.4644 94.2109 45.6675 94.2266V95ZM65.4427 95H61.552C61.3567 94.3594 61.1809 93.8125 61.0247 93.3594C60.8684 92.8984 60.638 92.3672 60.3333 91.7656C59.9661 91.0312 59.5677 90.5 59.138 90.1719C58.7161 89.8438 58.1575 89.6797 57.4622 89.6797H57.2395V92.9375C57.2395 93.2031 57.2903 93.4219 57.3919 93.5938C57.5013 93.7656 57.6653 93.8984 57.8841 93.9922C58.0481 94.0703 58.22 94.125 58.3997 94.1562C58.5872 94.1875 58.7825 94.2109 58.9856 94.2266V95H53.4427V94.2266C53.6223 94.2109 53.802 94.1992 53.9817 94.1914C54.1692 94.1836 54.3333 94.1562 54.4739 94.1094C54.6927 94.0391 54.8528 93.918 54.9544 93.7461C55.0559 93.5664 55.1067 93.3359 55.1067 93.0547V89.6797H54.8841C54.1575 89.6797 53.5872 89.8438 53.1731 90.1719C52.7591 90.4922 52.3645 91.0234 51.9895 91.7656C51.7083 92.3125 51.4856 92.8164 51.3216 93.2773C51.1653 93.7383 50.9817 94.3125 50.7708 95H46.9036V94.2266C47.0364 94.2109 47.2044 94.1914 47.4075 94.168C47.6184 94.1367 47.7981 94.1055 47.9466 94.0742C48.2278 94.0195 48.4466 93.9258 48.6028 93.793C48.7591 93.6523 48.9153 93.4219 49.0716 93.1016C49.1497 92.9219 49.2591 92.6758 49.3997 92.3633C49.5403 92.043 49.7044 91.6953 49.8919 91.3203C50.1809 90.7422 50.5208 90.2695 50.9114 89.9023C51.302 89.5352 51.8489 89.2773 52.552 89.1289V88.9766C52.1302 88.7109 51.802 88.3633 51.5677 87.9336C51.3411 87.4961 51.1575 87.0664 51.0169 86.6445C50.8997 86.2773 50.7786 85.8945 50.6536 85.4961C50.5286 85.0898 50.388 84.8203 50.2317 84.6875C49.8411 85.1562 49.5442 85.4727 49.3411 85.6367C49.138 85.8008 48.8802 85.8828 48.5677 85.8828C48.2005 85.8828 47.9036 85.7695 47.677 85.543C47.4583 85.3086 47.3489 85.0234 47.3489 84.6875C47.3489 84.2891 47.4817 83.9609 47.7473 83.7031C48.0208 83.4375 48.4661 83.3047 49.0833 83.3047C49.5364 83.3047 49.9075 83.3633 50.1966 83.4805C50.4934 83.5977 50.8216 83.8594 51.1809 84.2656C51.3763 84.4922 51.5403 84.7773 51.6731 85.1211C51.8059 85.457 51.9348 85.8242 52.0598 86.2227C52.177 86.5977 52.3098 86.9727 52.4583 87.3477C52.6145 87.7148 52.7942 88.0078 52.9973 88.2266C53.1848 88.4219 53.3958 88.5664 53.6302 88.6602C53.8645 88.7539 54.1263 88.8008 54.4153 88.8008H55.1067V85.5078C55.1067 85.25 55.052 85.0352 54.9427 84.8633C54.8411 84.6836 54.6809 84.5469 54.4622 84.4531C54.2591 84.3594 54.0638 84.3008 53.8763 84.2773C53.6888 84.2539 53.5169 84.2344 53.3606 84.2188V83.4453H58.9036V84.2188C58.6614 84.2344 58.4661 84.25 58.3177 84.2656C58.1692 84.2734 58.0208 84.2969 57.8723 84.3359C57.6536 84.3984 57.4934 84.5234 57.3919 84.7109C57.2903 84.8906 57.2395 85.1172 57.2395 85.3906V88.8008H57.9309C58.1888 88.8008 58.4466 88.75 58.7044 88.6484C58.9622 88.5469 59.177 88.4062 59.3489 88.2266C59.5677 87.9922 59.7513 87.6836 59.8997 87.3008C60.0559 86.918 60.1848 86.5586 60.2864 86.2227C60.4036 85.8398 60.5286 85.4766 60.6614 85.1328C60.802 84.7812 60.97 84.4922 61.1653 84.2656C61.5013 83.8828 61.8294 83.6289 62.1497 83.5039C62.47 83.3711 62.8411 83.3047 63.263 83.3047C63.8645 83.3047 64.302 83.4375 64.5755 83.7031C64.8567 83.9688 64.9973 84.2969 64.9973 84.6875C64.9973 85.0312 64.8841 85.3164 64.6575 85.543C64.4309 85.7695 64.138 85.8828 63.7786 85.8828C63.4427 85.8828 63.1692 85.793 62.9583 85.6133C62.7552 85.4336 62.4739 85.125 62.1145 84.6875C61.9427 84.8203 61.7942 85.0938 61.6692 85.5078C61.5442 85.9141 61.4309 86.2891 61.3294 86.6328C61.1809 87.1172 60.9817 87.5703 60.7317 87.9922C60.4895 88.4062 60.177 88.7344 59.7942 88.9766V89.1289C60.5052 89.2695 61.0559 89.5273 61.4466 89.9023C61.845 90.2773 62.1888 90.75 62.4778 91.3203C62.6184 91.5938 62.7747 91.9297 62.9466 92.3281C63.1263 92.7188 63.2434 92.9766 63.2981 93.1016C63.4153 93.3672 63.5638 93.582 63.7434 93.7461C63.9309 93.9102 64.1497 94.0156 64.3997 94.0625C64.595 94.1016 64.7864 94.1367 64.9739 94.168C65.1614 94.1992 65.3177 94.2188 65.4427 94.2266V95ZM78.96 95H74.9873C74.792 94.3594 74.6162 93.8125 74.46 93.3594C74.3037 92.8984 74.0733 92.3672 73.7686 91.7656C73.4014 91.0312 72.9952 90.5 72.5498 90.1719C72.1123 89.8438 71.5459 89.6797 70.8506 89.6797H70.5811V92.9141C70.5811 93.1797 70.6358 93.3984 70.7452 93.5703C70.8545 93.7422 71.0186 93.875 71.2373 93.9688C71.4014 94.0469 71.5772 94.1055 71.7647 94.1445C71.96 94.1836 72.1592 94.2109 72.3623 94.2266V95H66.7256V94.2266C66.9053 94.2109 67.0889 94.1953 67.2764 94.1797C67.4717 94.1641 67.6397 94.1328 67.7803 94.0859C67.9991 94.0156 68.1592 93.8945 68.2608 93.7227C68.3702 93.543 68.4248 93.3125 68.4248 93.0312V85.5312C68.4248 85.2734 68.3702 85.0586 68.2608 84.8867C68.1514 84.707 67.9873 84.5703 67.7686 84.4766C67.5655 84.3828 67.3662 84.3203 67.1709 84.2891C66.9834 84.2578 66.8077 84.2344 66.6436 84.2188V83.4453H72.2803V84.2188C72.0537 84.2344 71.8545 84.2539 71.6827 84.2773C71.5186 84.3008 71.3662 84.3281 71.2256 84.3594C71.0069 84.4219 70.8428 84.5469 70.7334 84.7344C70.6319 84.9141 70.5811 85.1406 70.5811 85.4141V88.8008H71.3194C71.5772 88.8008 71.835 88.75 72.0928 88.6484C72.3506 88.5469 72.5655 88.4062 72.7373 88.2266C72.9561 87.9922 73.1514 87.6836 73.3233 87.3008C73.4952 86.918 73.6397 86.5586 73.7569 86.2227C73.8819 85.8711 74.0225 85.5078 74.1787 85.1328C74.3428 84.7578 74.5069 84.4688 74.6709 84.2656C74.96 83.9141 75.2686 83.668 75.5967 83.5273C75.9327 83.3789 76.2998 83.3047 76.6983 83.3047C77.2998 83.3047 77.7412 83.4336 78.0225 83.6914C78.3037 83.9492 78.4444 84.2734 78.4444 84.6641C78.4444 85 78.3311 85.2891 78.1045 85.5312C77.8858 85.7734 77.5928 85.8945 77.2256 85.8945C76.8741 85.8945 76.5967 85.8047 76.3936 85.625C76.1983 85.4453 75.9248 85.1445 75.5733 84.7227C75.4248 84.8555 75.2803 85.1367 75.1397 85.5664C75.0069 85.9883 74.878 86.3594 74.753 86.6797C74.5186 87.3125 74.2764 87.8008 74.0264 88.1445C73.7842 88.4883 73.4991 88.7656 73.1709 88.9766V89.1289C73.8819 89.2695 74.4444 89.5273 74.8584 89.9023C75.2803 90.2773 75.6358 90.75 75.9248 91.3203C76.0655 91.5938 76.2217 91.9297 76.3936 92.3281C76.5733 92.7188 76.6905 92.9766 76.7452 93.1016C76.9014 93.4531 77.0889 93.6953 77.3077 93.8281C77.5264 93.9531 77.7295 94.0312 77.917 94.0625C78.0967 94.1016 78.2764 94.1367 78.4561 94.168C78.6436 94.1914 78.8116 94.2109 78.96 94.2266V95ZM91.4461 89.1055C91.4461 89.918 91.3172 90.7188 91.0594 91.5078C90.8016 92.2891 90.4344 92.9531 89.9578 93.5C89.4187 94.125 88.7937 94.5898 88.0828 94.8945C87.3719 95.1992 86.575 95.3516 85.6922 95.3516C84.9578 95.3516 84.2586 95.2148 83.5945 94.9414C82.9305 94.6602 82.3406 94.2539 81.825 93.7227C81.3172 93.1992 80.9109 92.5625 80.6062 91.8125C80.3094 91.0547 80.1609 90.207 80.1609 89.2695C80.1609 87.4648 80.6844 85.9883 81.7312 84.8398C82.7859 83.6914 84.1648 83.1172 85.868 83.1172C87.4852 83.1172 88.8172 83.6641 89.8641 84.7578C90.9187 85.8438 91.4461 87.293 91.4461 89.1055ZM89.0203 89.1289C89.0203 88.543 88.9617 87.9258 88.8445 87.2773C88.7273 86.6211 88.5516 86.0664 88.3172 85.6133C88.0672 85.1289 87.7391 84.7422 87.3328 84.4531C86.9266 84.1562 86.4305 84.0078 85.8445 84.0078C85.243 84.0078 84.7273 84.1562 84.2977 84.4531C83.8758 84.75 83.532 85.1562 83.2664 85.6719C83.0164 86.1484 82.8406 86.6914 82.7391 87.3008C82.6375 87.9102 82.5867 88.5 82.5867 89.0703C82.5867 89.8203 82.6453 90.5156 82.7625 91.1562C82.8875 91.7891 83.0828 92.3555 83.3484 92.8555C83.6141 93.3555 83.9461 93.75 84.3445 94.0391C84.7508 94.3203 85.2508 94.4609 85.8445 94.4609C86.8211 94.4609 87.5945 93.9883 88.1648 93.043C88.7352 92.0977 89.0203 90.793 89.0203 89.1289ZM101.717 91.6016C101.717 90.9141 101.463 90.3711 100.956 89.9727C100.448 89.5742 99.7213 89.375 98.7759 89.375C98.3619 89.375 98.0338 89.3828 97.7916 89.3984C97.5572 89.4141 97.3736 89.4219 97.2408 89.4219V93.2422C97.2408 93.5469 97.3697 93.7852 97.6275 93.957C97.8853 94.1211 98.2798 94.2031 98.8111 94.2031C99.3736 94.2031 99.8502 94.1289 100.241 93.9805C100.631 93.832 100.936 93.6289 101.155 93.3711C101.366 93.1211 101.51 92.8477 101.588 92.5508C101.674 92.2539 101.717 91.9375 101.717 91.6016ZM104.061 91.7773C104.061 92.3477 103.932 92.8398 103.674 93.2539C103.417 93.668 103.061 94.0078 102.608 94.2734C102.194 94.5156 101.721 94.6992 101.19 94.8242C100.659 94.9414 100.092 95 99.4908 95H93.3853V94.2266C93.565 94.2109 93.7486 94.1953 93.9361 94.1797C94.1314 94.1641 94.2994 94.1328 94.44 94.0859C94.6588 94.0156 94.8189 93.8945 94.9205 93.7227C95.0298 93.543 95.0845 93.3125 95.0845 93.0312V85.5312C95.0845 85.2734 95.0298 85.0586 94.9205 84.8867C94.8111 84.707 94.647 84.5703 94.4283 84.4766C94.2252 84.3828 94.0259 84.3203 93.8306 84.2891C93.6431 84.2578 93.4673 84.2344 93.3033 84.2188V83.4453C93.9986 83.4453 94.858 83.4414 95.8814 83.4336C96.9127 83.4258 97.9869 83.4219 99.1041 83.4219C99.6978 83.4219 100.249 83.4648 100.756 83.5508C101.272 83.6289 101.729 83.7656 102.128 83.9609C102.542 84.1641 102.862 84.4414 103.088 84.793C103.315 85.1367 103.428 85.5547 103.428 86.0469C103.428 86.8203 103.186 87.4336 102.702 87.8867C102.225 88.332 101.596 88.6367 100.815 88.8008V88.9297C101.213 88.9844 101.604 89.0742 101.987 89.1992C102.378 89.3242 102.725 89.4961 103.03 89.7148C103.342 89.9414 103.592 90.2227 103.78 90.5586C103.967 90.8867 104.061 91.293 104.061 91.7773ZM101.108 86.1406C101.108 85.75 101.034 85.4336 100.885 85.1914C100.745 84.9414 100.553 84.7461 100.311 84.6055C100.069 84.4648 99.7955 84.3711 99.4908 84.3242C99.1939 84.2695 98.8853 84.2422 98.565 84.2422C98.3619 84.2422 98.1353 84.25 97.8853 84.2656C97.6431 84.2734 97.4283 84.2812 97.2408 84.2891V88.5078H98.3775C98.9166 88.5078 99.3697 88.4453 99.7369 88.3203C100.104 88.1953 100.381 88.0273 100.569 87.8164C100.764 87.6133 100.901 87.3711 100.979 87.0898C101.065 86.8086 101.108 86.4922 101.108 86.1406ZM119.078 95H113.465V94.2266C113.645 94.2109 113.828 94.1953 114.016 94.1797C114.211 94.1641 114.379 94.1328 114.52 94.0859C114.739 94.0156 114.907 93.8945 115.024 93.7227C115.141 93.543 115.2 93.3125 115.2 93.0312V86.9609L109.879 92.7148V92.9141C109.879 93.1797 109.934 93.3984 110.043 93.5703C110.153 93.7422 110.317 93.875 110.535 93.9688C110.707 94.0469 110.887 94.1055 111.075 94.1445C111.27 94.1836 111.473 94.2109 111.684 94.2266V95H106.071V94.2266C106.25 94.2109 106.434 94.1953 106.621 94.1797C106.817 94.1641 106.985 94.1328 107.125 94.0859C107.344 94.0156 107.504 93.8945 107.606 93.7227C107.715 93.543 107.77 93.3125 107.77 93.0312V85.5312C107.77 85.2734 107.715 85.0586 107.606 84.8867C107.496 84.707 107.332 84.5703 107.114 84.4766C106.91 84.3828 106.711 84.3203 106.516 84.2891C106.328 84.2578 106.153 84.2344 105.989 84.2188V83.4453H111.602V84.2188C111.375 84.2344 111.176 84.2539 111.004 84.2773C110.84 84.3008 110.688 84.3281 110.547 84.3594C110.328 84.4219 110.164 84.5469 110.055 84.7344C109.953 84.9141 109.903 85.1406 109.903 85.4141V91.3906L115.223 85.625C115.223 85.2812 115.168 85.0273 115.059 84.8633C114.95 84.6992 114.785 84.5703 114.567 84.4766C114.364 84.3828 114.16 84.3203 113.957 84.2891C113.762 84.2578 113.582 84.2344 113.418 84.2188V83.4453H119.032V84.2188C118.805 84.2344 118.606 84.2539 118.434 84.2773C118.27 84.3008 118.118 84.3281 117.977 84.3594C117.758 84.4219 117.594 84.5469 117.485 84.7344C117.383 84.9141 117.332 85.1406 117.332 85.4141V92.9141C117.332 93.1875 117.379 93.4102 117.473 93.582C117.567 93.7461 117.727 93.875 117.953 93.9688C118.118 94.0469 118.293 94.1055 118.481 94.1445C118.676 94.1836 118.875 94.2109 119.078 94.2266V95ZM134.014 95H128.4V94.2266C128.58 94.2109 128.764 94.1953 128.951 94.1797C129.147 94.1641 129.315 94.1328 129.455 94.0859C129.674 94.0156 129.842 93.8945 129.959 93.7227C130.076 93.543 130.135 93.3125 130.135 93.0312V86.9609L124.815 92.7148V92.9141C124.815 93.1797 124.869 93.3984 124.979 93.5703C125.088 93.7422 125.252 93.875 125.471 93.9688C125.643 94.0469 125.822 94.1055 126.01 94.1445C126.205 94.1836 126.408 94.2109 126.619 94.2266V95H121.006V94.2266C121.186 94.2109 121.369 94.1953 121.557 94.1797C121.752 94.1641 121.92 94.1328 122.061 94.0859C122.279 94.0156 122.44 93.8945 122.541 93.7227C122.65 93.543 122.705 93.3125 122.705 93.0312V85.5312C122.705 85.2734 122.65 85.0586 122.541 84.8867C122.432 84.707 122.268 84.5703 122.049 84.4766C121.846 84.3828 121.647 84.3203 121.451 84.2891C121.264 84.2578 121.088 84.2344 120.924 84.2188V83.4453H126.537V84.2188C126.311 84.2344 126.111 84.2539 125.94 84.2773C125.775 84.3008 125.623 84.3281 125.482 84.3594C125.264 84.4219 125.1 84.5469 124.99 84.7344C124.889 84.9141 124.838 85.1406 124.838 85.4141V91.3906L130.158 85.625C130.158 85.2812 130.104 85.0273 129.994 84.8633C129.885 84.6992 129.721 84.5703 129.502 84.4766C129.299 84.3828 129.096 84.3203 128.893 84.2891C128.697 84.2578 128.518 84.2344 128.354 84.2188V83.4453H133.967V84.2188C133.74 84.2344 133.541 84.2539 133.369 84.2773C133.205 84.3008 133.053 84.3281 132.912 84.3594C132.693 84.4219 132.529 84.5469 132.42 84.7344C132.318 84.9141 132.268 85.1406 132.268 85.4141V92.9141C132.268 93.1875 132.315 93.4102 132.408 93.582C132.502 93.7461 132.662 93.875 132.889 93.9688C133.053 94.0469 133.229 94.1055 133.416 94.1445C133.611 94.1836 133.811 94.2109 134.014 94.2266V95ZM131.436 78.6992C131.436 78.9414 131.361 79.2305 131.213 79.5664C131.072 79.9023 130.861 80.1953 130.58 80.4453C130.252 80.7344 129.854 80.9688 129.385 81.1484C128.924 81.3281 128.295 81.418 127.498 81.418C126.748 81.418 126.127 81.3281 125.635 81.1484C125.143 80.9609 124.74 80.7266 124.428 80.4453C124.131 80.1719 123.916 79.8789 123.783 79.5664C123.658 79.2461 123.596 78.957 123.596 78.6992C123.596 78.3242 123.705 78.0195 123.924 77.7852C124.15 77.543 124.42 77.4219 124.732 77.4219C125.022 77.4219 125.291 77.5078 125.541 77.6797C125.791 77.8516 125.916 78.1328 125.916 78.5234C125.916 78.75 125.869 79.0039 125.775 79.2852C125.682 79.5586 125.607 79.7578 125.553 79.8828C125.764 80.1406 126.041 80.332 126.385 80.457C126.736 80.582 127.107 80.6445 127.498 80.6445C127.842 80.6445 128.205 80.5859 128.588 80.4688C128.971 80.3438 129.268 80.1484 129.479 79.8828C129.416 79.7344 129.338 79.5234 129.244 79.25C129.158 78.9688 129.115 78.7266 129.115 78.5234C129.115 78.1328 129.24 77.8516 129.49 77.6797C129.74 77.5078 130.006 77.4219 130.287 77.4219C130.607 77.4219 130.877 77.543 131.096 77.7852C131.322 78.0195 131.436 78.3242 131.436 78.6992ZM147.56 95H141.97V94.2266C142.15 94.2109 142.334 94.1953 142.521 94.1797C142.716 94.1641 142.884 94.1328 143.025 94.0859C143.244 94.0156 143.404 93.8945 143.505 93.7227C143.615 93.543 143.67 93.3125 143.67 93.0312V85.8945C143.67 85.6445 143.611 85.418 143.494 85.2148C143.384 85.0039 143.228 84.8281 143.025 84.6875C142.877 84.5938 142.662 84.5156 142.38 84.4531C142.099 84.3828 141.841 84.3398 141.607 84.3242V83.5625L145.685 83.3047L145.849 83.4688V92.8906C145.849 93.1641 145.9 93.3906 146.002 93.5703C146.111 93.75 146.279 93.8828 146.505 93.9688C146.677 94.0391 146.845 94.0977 147.009 94.1445C147.173 94.1836 147.357 94.2109 147.56 94.2266V95ZM146.084 78.7461C146.084 79.1914 145.935 79.582 145.638 79.918C145.349 80.2461 144.99 80.4102 144.56 80.4102C144.162 80.4102 143.814 80.2539 143.517 79.9414C143.228 79.6211 143.084 79.2578 143.084 78.8516C143.084 78.4219 143.228 78.0469 143.517 77.7266C143.814 77.4062 144.162 77.2461 144.56 77.2461C145.005 77.2461 145.369 77.3984 145.65 77.7031C145.939 78 146.084 78.3477 146.084 78.7461ZM162.167 95H156.519V94.2266C156.699 94.2109 156.882 94.1953 157.07 94.1797C157.265 94.1641 157.433 94.1328 157.574 94.0859C157.792 94.0156 157.96 93.8945 158.077 93.7227C158.195 93.543 158.253 93.3125 158.253 93.0312V89.3516H153.109V92.9141C153.109 93.1797 153.163 93.3984 153.273 93.5703C153.382 93.7422 153.546 93.875 153.765 93.9688C153.929 94.0469 154.105 94.1055 154.292 94.1445C154.488 94.1836 154.687 94.2109 154.89 94.2266V95H149.242V94.2266C149.421 94.2109 149.605 94.1953 149.792 94.1797C149.988 94.1641 150.156 94.1328 150.296 94.0859C150.515 94.0156 150.675 93.8945 150.777 93.7227C150.886 93.543 150.941 93.3125 150.941 93.0312V85.5312C150.941 85.2734 150.886 85.0586 150.777 84.8867C150.667 84.707 150.503 84.5703 150.285 84.4766C150.081 84.3828 149.882 84.3203 149.687 84.2891C149.499 84.2578 149.324 84.2344 149.16 84.2188V83.4453H154.808V84.2188C154.581 84.2344 154.382 84.2539 154.21 84.2773C154.046 84.3008 153.894 84.3281 153.753 84.3594C153.535 84.4219 153.37 84.5469 153.261 84.7344C153.16 84.9141 153.109 85.1406 153.109 85.4141V88.3906H158.253V85.5312C158.253 85.2734 158.199 85.0586 158.089 84.8867C157.98 84.707 157.816 84.5703 157.597 84.4766C157.394 84.3828 157.195 84.3203 156.999 84.2891C156.812 84.2578 156.636 84.2344 156.472 84.2188V83.4453H162.12V84.2188C161.894 84.2344 161.695 84.2539 161.523 84.2773C161.359 84.3008 161.206 84.3281 161.066 84.3594C160.847 84.4219 160.683 84.5469 160.574 84.7344C160.472 84.9141 160.421 85.1406 160.421 85.4141V92.9141C160.421 93.1875 160.468 93.4102 160.562 93.582C160.656 93.7461 160.816 93.875 161.042 93.9688C161.206 94.0469 161.382 94.1055 161.57 94.1445C161.765 94.1836 161.964 94.2109 162.167 94.2266V95ZM174.278 87.1484H173.564C173.493 86.9297 173.388 86.6719 173.247 86.375C173.114 86.0781 172.966 85.7969 172.802 85.5312C172.63 85.2422 172.435 84.9883 172.216 84.7695C172.005 84.543 171.782 84.4141 171.548 84.3828C171.306 84.3594 171.036 84.3438 170.739 84.3359C170.443 84.3203 170.189 84.3125 169.978 84.3125V92.9141C169.978 93.1797 170.032 93.3984 170.142 93.5703C170.251 93.7422 170.415 93.875 170.634 93.9688C170.806 94.0469 171.001 94.1055 171.22 94.1445C171.439 94.1836 171.653 94.2109 171.864 94.2266V95H165.982V94.2266C166.161 94.2109 166.364 94.1953 166.591 94.1797C166.825 94.1641 167.013 94.1328 167.153 94.0859C167.372 94.0156 167.532 93.8945 167.634 93.7227C167.743 93.543 167.798 93.3125 167.798 93.0312V84.3125C167.548 84.3203 167.267 84.332 166.954 84.3477C166.642 84.3555 166.396 84.3672 166.216 84.3828C166.013 84.3984 165.794 84.5273 165.56 84.7695C165.333 85.0117 165.134 85.2656 164.962 85.5312C164.798 85.7969 164.646 86.0938 164.505 86.4219C164.364 86.7422 164.267 86.9844 164.212 87.1484H163.497V83.4453H174.278V87.1484ZM185.886 92.2812C185.401 93.2031 184.753 93.9375 183.94 94.4844C183.128 95.0312 182.194 95.3047 181.14 95.3047C180.21 95.3047 179.393 95.1406 178.69 94.8125C177.995 94.4844 177.421 94.0391 176.968 93.4766C176.515 92.9141 176.175 92.2578 175.948 91.5078C175.729 90.7578 175.62 89.9648 175.62 89.1289C175.62 88.3789 175.737 87.6445 175.972 86.9258C176.214 86.1992 176.565 85.5469 177.026 84.9688C177.472 84.4141 178.022 83.9688 178.679 83.6328C179.343 83.2891 180.085 83.1172 180.905 83.1172C181.749 83.1172 182.472 83.25 183.073 83.5156C183.675 83.7812 184.163 84.1445 184.538 84.6055C184.897 85.043 185.163 85.5586 185.335 86.1523C185.515 86.7461 185.604 87.3906 185.604 88.0859V88.8594H177.952C177.952 89.6172 178.022 90.3047 178.163 90.9219C178.311 91.5391 178.542 92.082 178.854 92.5508C179.159 93.0039 179.557 93.3633 180.05 93.6289C180.542 93.8867 181.128 94.0156 181.807 94.0156C182.503 94.0156 183.1 93.8555 183.6 93.5352C184.108 93.207 184.597 92.6211 185.065 91.7773L185.886 92.2812ZM183.296 87.875C183.296 87.4375 183.257 86.9688 183.179 86.4688C183.108 85.9688 182.991 85.5508 182.827 85.2148C182.647 84.8555 182.401 84.5625 182.089 84.3359C181.776 84.1094 181.374 83.9961 180.882 83.9961C180.061 83.9961 179.378 84.3398 178.831 85.0273C178.292 85.707 177.999 86.6562 177.952 87.875H183.296ZM198.02 84.8164C198.481 85.3633 198.837 86 199.087 86.7266C199.344 87.4453 199.473 88.2695 199.473 89.1992C199.473 90.1133 199.321 90.9492 199.016 91.707C198.712 92.457 198.309 93.0977 197.809 93.6289C197.286 94.168 196.704 94.582 196.063 94.8711C195.423 95.1602 194.743 95.3047 194.024 95.3047C193.329 95.3047 192.758 95.2266 192.313 95.0703C191.868 94.9141 191.505 94.7305 191.223 94.5195H191.13V97.9883C191.13 98.2695 191.184 98.5039 191.294 98.6914C191.403 98.8789 191.571 99.0156 191.798 99.1016C191.985 99.1719 192.251 99.2383 192.594 99.3008C192.946 99.3711 193.235 99.4102 193.462 99.418V100.203H187.005V99.418C187.247 99.4023 187.481 99.3828 187.708 99.3594C187.934 99.3359 188.137 99.2969 188.317 99.2422C188.551 99.1641 188.715 99.0273 188.809 98.832C188.903 98.6367 188.95 98.4062 188.95 98.1406V85.8477C188.95 85.6133 188.891 85.3867 188.774 85.168C188.657 84.9492 188.505 84.7734 188.317 84.6406C188.176 84.5469 187.981 84.4766 187.731 84.4297C187.481 84.375 187.239 84.3398 187.005 84.3242V83.5625L190.942 83.3047L191.106 83.4453V84.7461L191.2 84.7695C191.606 84.3008 192.11 83.9102 192.712 83.5977C193.313 83.2852 193.911 83.1289 194.505 83.1289C195.223 83.1289 195.88 83.2812 196.473 83.5859C197.075 83.8906 197.59 84.3008 198.02 84.8164ZM196.11 93.125C196.423 92.6406 196.653 92.0781 196.801 91.4375C196.95 90.7969 197.024 90.082 197.024 89.293C197.024 88.7148 196.962 88.125 196.837 87.5234C196.712 86.9219 196.516 86.3984 196.251 85.9531C195.985 85.5 195.637 85.1328 195.208 84.8516C194.778 84.5703 194.262 84.4297 193.661 84.4297C193.083 84.4297 192.59 84.5586 192.184 84.8164C191.778 85.0664 191.426 85.3672 191.13 85.7188V92.5508C191.2 92.7617 191.313 92.9805 191.469 93.207C191.633 93.4336 191.813 93.6289 192.008 93.793C192.251 93.9883 192.512 94.1484 192.794 94.2734C193.075 94.3906 193.419 94.4492 193.825 94.4492C194.262 94.4492 194.684 94.3359 195.09 94.1094C195.497 93.875 195.837 93.5469 196.11 93.125ZM214.362 95H208.713V94.2266C208.893 94.2109 209.077 94.1953 209.264 94.1797C209.459 94.1641 209.627 94.1328 209.768 94.0859C209.987 94.0156 210.155 93.8945 210.272 93.7227C210.389 93.543 210.448 93.3125 210.448 93.0312V89.3516H205.303V92.9141C205.303 93.1797 205.358 93.3984 205.467 93.5703C205.577 93.7422 205.741 93.875 205.959 93.9688C206.123 94.0469 206.299 94.1055 206.487 94.1445C206.682 94.1836 206.881 94.2109 207.084 94.2266V95H201.436V94.2266C201.616 94.2109 201.799 94.1953 201.987 94.1797C202.182 94.1641 202.35 94.1328 202.491 94.0859C202.709 94.0156 202.87 93.8945 202.971 93.7227C203.08 93.543 203.135 93.3125 203.135 93.0312V85.5312C203.135 85.2734 203.08 85.0586 202.971 84.8867C202.862 84.707 202.698 84.5703 202.479 84.4766C202.276 84.3828 202.077 84.3203 201.881 84.2891C201.694 84.2578 201.518 84.2344 201.354 84.2188V83.4453H207.002V84.2188C206.776 84.2344 206.577 84.2539 206.405 84.2773C206.241 84.3008 206.088 84.3281 205.948 84.3594C205.729 84.4219 205.565 84.5469 205.455 84.7344C205.354 84.9141 205.303 85.1406 205.303 85.4141V88.3906H210.448V85.5312C210.448 85.2734 210.393 85.0586 210.284 84.8867C210.174 84.707 210.01 84.5703 209.791 84.4766C209.588 84.3828 209.389 84.3203 209.194 84.2891C209.006 84.2578 208.83 84.2344 208.666 84.2188V83.4453H214.315V84.2188C214.088 84.2344 213.889 84.2539 213.717 84.2773C213.553 84.3008 213.401 84.3281 213.26 84.3594C213.041 84.4219 212.877 84.5469 212.768 84.7344C212.666 84.9141 212.616 85.1406 212.616 85.4141V92.9141C212.616 93.1875 212.663 93.4102 212.756 93.582C212.85 93.7461 213.01 93.875 213.237 93.9688C213.401 94.0469 213.577 94.1055 213.764 94.1445C213.959 94.1836 214.159 94.2109 214.362 94.2266V95ZM226.543 92.2812C226.059 93.2031 225.41 93.9375 224.598 94.4844C223.785 95.0312 222.852 95.3047 221.797 95.3047C220.867 95.3047 220.051 95.1406 219.348 94.8125C218.652 94.4844 218.078 94.0391 217.625 93.4766C217.172 92.9141 216.832 92.2578 216.606 91.5078C216.387 90.7578 216.277 89.9648 216.277 89.1289C216.277 88.3789 216.395 87.6445 216.629 86.9258C216.871 86.1992 217.223 85.5469 217.684 84.9688C218.129 84.4141 218.68 83.9688 219.336 83.6328C220 83.2891 220.742 83.1172 221.563 83.1172C222.406 83.1172 223.129 83.25 223.731 83.5156C224.332 83.7812 224.82 84.1445 225.195 84.6055C225.555 85.043 225.82 85.5586 225.992 86.1523C226.172 86.7461 226.262 87.3906 226.262 88.0859V88.8594H218.61C218.61 89.6172 218.68 90.3047 218.82 90.9219C218.969 91.5391 219.199 92.082 219.512 92.5508C219.817 93.0039 220.215 93.3633 220.707 93.6289C221.199 93.8867 221.785 94.0156 222.465 94.0156C223.16 94.0156 223.758 93.8555 224.258 93.5352C224.766 93.207 225.254 92.6211 225.723 91.7773L226.543 92.2812ZM223.953 87.875C223.953 87.4375 223.914 86.9688 223.836 86.4688C223.766 85.9688 223.649 85.5508 223.485 85.2148C223.305 84.8555 223.059 84.5625 222.746 84.3359C222.434 84.1094 222.031 83.9961 221.539 83.9961C220.719 83.9961 220.035 84.3398 219.488 85.0273C218.949 85.707 218.656 86.6562 218.61 87.875H223.953ZM238.314 87.1484H237.6C237.529 86.9297 237.424 86.6719 237.283 86.375C237.15 86.0781 237.002 85.7969 236.838 85.5312C236.666 85.2422 236.471 84.9883 236.252 84.7695C236.041 84.543 235.818 84.4141 235.584 84.3828C235.342 84.3594 235.072 84.3438 234.775 84.3359C234.478 84.3203 234.225 84.3125 234.014 84.3125V92.9141C234.014 93.1797 234.068 93.3984 234.178 93.5703C234.287 93.7422 234.451 93.875 234.67 93.9688C234.842 94.0469 235.037 94.1055 235.256 94.1445C235.475 94.1836 235.689 94.2109 235.9 94.2266V95H230.018V94.2266C230.197 94.2109 230.4 94.1953 230.627 94.1797C230.861 94.1641 231.049 94.1328 231.189 94.0859C231.408 94.0156 231.568 93.8945 231.67 93.7227C231.779 93.543 231.834 93.3125 231.834 93.0312V84.3125C231.584 84.3203 231.303 84.332 230.99 84.3477C230.678 84.3555 230.432 84.3672 230.252 84.3828C230.049 84.3984 229.83 84.5273 229.596 84.7695C229.369 85.0117 229.17 85.2656 228.998 85.5312C228.834 85.7969 228.682 86.0938 228.541 86.4219C228.4 86.7422 228.303 86.9844 228.248 87.1484H227.533V83.4453H238.314V87.1484ZM246.793 89.5508H239.808V87.7109H246.793V89.5508ZM264.376 95H258.716V94.2266C258.896 94.2109 259.08 94.1953 259.267 94.1797C259.462 94.1641 259.63 94.1328 259.771 94.0859C259.997 94.0156 260.169 93.8906 260.287 93.7109C260.412 93.5234 260.474 93.2969 260.474 93.0312V84.6641H260.193L256.279 94.8125H255.552L251.872 84.4648H251.615V92.5625C251.615 92.9609 251.669 93.2734 251.779 93.5C251.896 93.7266 252.06 93.8828 252.271 93.9688C252.435 94.0469 252.611 94.1055 252.798 94.1445C252.994 94.1836 253.193 94.2109 253.396 94.2266V95H248.896V94.2266C249.076 94.2109 249.259 94.1953 249.447 94.1797C249.642 94.1641 249.81 94.1328 249.951 94.0859C250.185 94.0078 250.349 93.8555 250.443 93.6289C250.544 93.3945 250.595 93.0781 250.595 92.6797V85.6484C250.595 85.3438 250.54 85.0977 250.431 84.9102C250.322 84.7148 250.158 84.5703 249.939 84.4766C249.736 84.3828 249.537 84.3203 249.341 84.2891C249.154 84.2578 248.978 84.2344 248.814 84.2188V83.4453H253.619L256.513 91.7188L259.068 84.8633C259.146 84.6367 259.232 84.3672 259.326 84.0547C259.419 83.7422 259.47 83.5391 259.478 83.4453H264.33V84.2188C264.103 84.2344 263.904 84.2539 263.732 84.2773C263.568 84.3008 263.415 84.3281 263.275 84.3594C263.056 84.4219 262.892 84.5469 262.783 84.7344C262.681 84.9141 262.63 85.1406 262.63 85.4141V92.9141C262.63 93.1875 262.677 93.4102 262.771 93.582C262.865 93.7461 263.025 93.875 263.251 93.9688C263.415 94.0469 263.591 94.1055 263.779 94.1445C263.974 94.1836 264.173 94.2109 264.376 94.2266V95ZM277.237 94.7891C276.87 94.9219 276.546 95.0273 276.265 95.1055C275.991 95.1914 275.679 95.2344 275.327 95.2344C274.718 95.2344 274.23 95.0938 273.862 94.8125C273.503 94.5234 273.273 94.1055 273.171 93.5586H273.101C272.593 94.1211 272.046 94.5508 271.46 94.8477C270.882 95.1445 270.183 95.293 269.362 95.293C268.495 95.293 267.78 95.0273 267.218 94.4961C266.663 93.9648 266.386 93.2695 266.386 92.4102C266.386 91.9648 266.448 91.5664 266.573 91.2148C266.698 90.8633 266.886 90.5469 267.136 90.2656C267.331 90.0312 267.589 89.8242 267.909 89.6445C268.23 89.457 268.53 89.3086 268.812 89.1992C269.163 89.0664 269.874 88.8203 270.945 88.4609C272.023 88.1016 272.749 87.8203 273.124 87.6172V86.457C273.124 86.3555 273.101 86.1602 273.054 85.8711C273.015 85.582 272.925 85.3086 272.784 85.0508C272.628 84.7617 272.405 84.5117 272.116 84.3008C271.835 84.082 271.433 83.9727 270.909 83.9727C270.55 83.9727 270.214 84.0352 269.902 84.1602C269.597 84.2773 269.382 84.4023 269.257 84.5352C269.257 84.6914 269.292 84.9219 269.362 85.2266C269.441 85.5312 269.48 85.8125 269.48 86.0703C269.48 86.3438 269.355 86.5938 269.105 86.8203C268.862 87.0469 268.523 87.1602 268.085 87.1602C267.695 87.1602 267.405 87.0234 267.218 86.75C267.038 86.4688 266.948 86.1562 266.948 85.8125C266.948 85.4531 267.073 85.1094 267.323 84.7812C267.581 84.4531 267.913 84.1602 268.32 83.9023C268.671 83.6836 269.097 83.5 269.597 83.3516C270.097 83.1953 270.585 83.1172 271.062 83.1172C271.718 83.1172 272.288 83.1641 272.773 83.2578C273.265 83.3438 273.71 83.5352 274.109 83.832C274.507 84.1211 274.808 84.5156 275.011 85.0156C275.222 85.5078 275.327 86.1445 275.327 86.9258C275.327 88.043 275.316 89.0352 275.292 89.9023C275.269 90.7617 275.257 91.7031 275.257 92.7266C275.257 93.0312 275.308 93.2734 275.409 93.4531C275.519 93.6328 275.683 93.7852 275.902 93.9102C276.019 93.9805 276.202 94.0195 276.452 94.0273C276.71 94.0352 276.972 94.0391 277.237 94.0391V94.7891ZM273.148 88.6016C272.484 88.7969 271.902 88.9883 271.402 89.1758C270.902 89.3633 270.437 89.5977 270.007 89.8789C269.616 90.1445 269.308 90.4609 269.081 90.8281C268.855 91.1875 268.741 91.6172 268.741 92.1172C268.741 92.7656 268.909 93.2422 269.245 93.5469C269.589 93.8516 270.023 94.0039 270.546 94.0039C271.101 94.0039 271.589 93.8711 272.011 93.6055C272.433 93.332 272.788 93.0117 273.077 92.6445L273.148 88.6016ZM284.474 95H278.649V94.2266C278.829 94.2109 279.013 94.1953 279.2 94.1797C279.395 94.1641 279.563 94.1328 279.704 94.0859C279.923 94.0156 280.083 93.8945 280.185 93.7227C280.294 93.543 280.349 93.3125 280.349 93.0312V85.5312C280.349 85.2734 280.294 85.0586 280.185 84.8867C280.075 84.707 279.911 84.5703 279.692 84.4766C279.489 84.3828 279.278 84.3203 279.06 84.2891C278.841 84.2578 278.653 84.2344 278.497 84.2188V83.4453H288.13V87.2773H287.403C287.349 87.1055 287.251 86.8555 287.11 86.5273C286.97 86.1992 286.81 85.8906 286.63 85.6016C286.45 85.2891 286.251 85.0195 286.032 84.793C285.821 84.5586 285.599 84.4258 285.364 84.3945C285.145 84.3711 284.88 84.3555 284.567 84.3477C284.255 84.332 283.989 84.3242 283.77 84.3242H282.528V92.9141C282.528 93.1797 282.583 93.3984 282.692 93.5703C282.802 93.7422 282.966 93.875 283.185 93.9688C283.356 94.0469 283.56 94.1055 283.794 94.1445C284.036 94.1836 284.263 94.2109 284.474 94.2266V95ZM300.382 94.7891C300.014 94.9219 299.69 95.0273 299.409 95.1055C299.135 95.1914 298.823 95.2344 298.471 95.2344C297.862 95.2344 297.374 95.0938 297.007 94.8125C296.647 94.5234 296.417 94.1055 296.315 93.5586H296.245C295.737 94.1211 295.19 94.5508 294.604 94.8477C294.026 95.1445 293.327 95.293 292.507 95.293C291.639 95.293 290.925 95.0273 290.362 94.4961C289.807 93.9648 289.53 93.2695 289.53 92.4102C289.53 91.9648 289.592 91.5664 289.717 91.2148C289.842 90.8633 290.03 90.5469 290.28 90.2656C290.475 90.0312 290.733 89.8242 291.053 89.6445C291.374 89.457 291.675 89.3086 291.956 89.1992C292.307 89.0664 293.018 88.8203 294.089 88.4609C295.167 88.1016 295.893 87.8203 296.268 87.6172V86.457C296.268 86.3555 296.245 86.1602 296.198 85.8711C296.159 85.582 296.069 85.3086 295.928 85.0508C295.772 84.7617 295.55 84.5117 295.26 84.3008C294.979 84.082 294.577 83.9727 294.053 83.9727C293.694 83.9727 293.358 84.0352 293.046 84.1602C292.741 84.2773 292.526 84.4023 292.401 84.5352C292.401 84.6914 292.436 84.9219 292.507 85.2266C292.585 85.5312 292.624 85.8125 292.624 86.0703C292.624 86.3438 292.499 86.5938 292.249 86.8203C292.007 87.0469 291.667 87.1602 291.229 87.1602C290.839 87.1602 290.55 87.0234 290.362 86.75C290.182 86.4688 290.092 86.1562 290.092 85.8125C290.092 85.4531 290.217 85.1094 290.467 84.7812C290.725 84.4531 291.057 84.1602 291.464 83.9023C291.815 83.6836 292.241 83.5 292.741 83.3516C293.241 83.1953 293.729 83.1172 294.206 83.1172C294.862 83.1172 295.432 83.1641 295.917 83.2578C296.409 83.3438 296.854 83.5352 297.253 83.832C297.651 84.1211 297.952 84.5156 298.155 85.0156C298.366 85.5078 298.471 86.1445 298.471 86.9258C298.471 88.043 298.46 89.0352 298.436 89.9023C298.413 90.7617 298.401 91.7031 298.401 92.7266C298.401 93.0312 298.452 93.2734 298.553 93.4531C298.663 93.6328 298.827 93.7852 299.046 93.9102C299.163 93.9805 299.346 94.0195 299.596 94.0273C299.854 94.0352 300.116 94.0391 300.382 94.0391V94.7891ZM296.292 88.6016C295.628 88.7969 295.046 88.9883 294.546 89.1758C294.046 89.3633 293.581 89.5977 293.151 89.8789C292.76 90.1445 292.452 90.4609 292.225 90.8281C291.999 91.1875 291.885 91.6172 291.885 92.1172C291.885 92.7656 292.053 93.2422 292.389 93.5469C292.733 93.8516 293.167 94.0039 293.69 94.0039C294.245 94.0039 294.733 93.8711 295.155 93.6055C295.577 93.332 295.932 93.0117 296.221 92.6445L296.292 88.6016ZM311.321 91.6602C311.321 92.7461 310.836 93.625 309.868 94.2969C308.907 94.9688 307.649 95.3047 306.094 95.3047C305.399 95.3047 304.766 95.2227 304.196 95.0586C303.633 94.9023 303.161 94.6875 302.778 94.4141C302.411 94.1406 302.129 93.832 301.934 93.4883C301.739 93.1445 301.641 92.7695 301.641 92.3633C301.641 92.0117 301.735 91.7227 301.922 91.4961C302.11 91.2695 302.403 91.1562 302.801 91.1562C303.223 91.1562 303.543 91.2695 303.762 91.4961C303.981 91.7227 304.09 91.9609 304.09 92.2109C304.09 92.4375 304.055 92.707 303.985 93.0195C303.922 93.332 303.868 93.5742 303.821 93.7461C304.024 93.9492 304.321 94.1172 304.711 94.25C305.102 94.375 305.559 94.4375 306.082 94.4375C306.895 94.4375 307.571 94.1953 308.11 93.7109C308.649 93.2266 308.918 92.543 308.918 91.6602C308.918 91.3945 308.883 91.125 308.813 90.8516C308.743 90.5781 308.61 90.3359 308.415 90.125C308.219 89.9141 307.954 89.7422 307.618 89.6094C307.282 89.4766 306.84 89.4102 306.293 89.4102H305.063V88.3203H306.071C307.008 88.3203 307.665 88.125 308.04 87.7344C308.415 87.3359 308.602 86.7227 308.602 85.8945C308.602 85.3164 308.422 84.8594 308.063 84.5234C307.704 84.1797 307.207 84.0078 306.575 84.0078C306.114 84.0078 305.704 84.1094 305.344 84.3125C304.985 84.5078 304.653 84.7773 304.348 85.1211C304.075 85.4336 303.832 85.8008 303.622 86.2227C303.418 86.6367 303.25 87.0273 303.118 87.3945H302.332L302.403 83.2109H303.188L303.61 83.8555C304 83.6758 304.469 83.5078 305.016 83.3516C305.571 83.1953 306.192 83.1172 306.879 83.1172C307.739 83.1172 308.438 83.2227 308.977 83.4336C309.516 83.6367 309.934 83.8828 310.231 84.1719C310.52 84.4531 310.715 84.7539 310.817 85.0742C310.918 85.3867 310.969 85.6445 310.969 85.8477C310.969 86.1133 310.926 86.3867 310.84 86.668C310.762 86.9414 310.61 87.2031 310.383 87.4531C310.165 87.7031 309.86 87.9375 309.469 88.1562C309.086 88.3672 308.602 88.5312 308.016 88.6484V88.8008C308.383 88.8164 308.758 88.875 309.141 88.9766C309.532 89.0781 309.891 89.2383 310.219 89.457C310.571 89.6992 310.84 90.0039 311.028 90.3711C311.223 90.7305 311.321 91.1602 311.321 91.6602ZM326.408 95H320.795V94.2266C320.975 94.2109 321.158 94.1953 321.346 94.1797C321.541 94.1641 321.709 94.1328 321.85 94.0859C322.069 94.0156 322.237 93.8945 322.354 93.7227C322.471 93.543 322.53 93.3125 322.53 93.0312V86.9609L317.209 92.7148V92.9141C317.209 93.1797 317.264 93.3984 317.373 93.5703C317.483 93.7422 317.647 93.875 317.865 93.9688C318.037 94.0469 318.217 94.1055 318.405 94.1445C318.6 94.1836 318.803 94.2109 319.014 94.2266V95H313.401V94.2266C313.58 94.2109 313.764 94.1953 313.951 94.1797C314.147 94.1641 314.315 94.1328 314.455 94.0859C314.674 94.0156 314.834 93.8945 314.936 93.7227C315.045 93.543 315.1 93.3125 315.1 93.0312V85.5312C315.1 85.2734 315.045 85.0586 314.936 84.8867C314.826 84.707 314.662 84.5703 314.444 84.4766C314.24 84.3828 314.041 84.3203 313.846 84.2891C313.658 84.2578 313.483 84.2344 313.319 84.2188V83.4453H318.932V84.2188C318.705 84.2344 318.506 84.2539 318.334 84.2773C318.17 84.3008 318.018 84.3281 317.877 84.3594C317.658 84.4219 317.494 84.5469 317.385 84.7344C317.283 84.9141 317.233 85.1406 317.233 85.4141V91.3906L322.553 85.625C322.553 85.2812 322.498 85.0273 322.389 84.8633C322.28 84.6992 322.115 84.5703 321.897 84.4766C321.694 84.3828 321.49 84.3203 321.287 84.2891C321.092 84.2578 320.912 84.2344 320.748 84.2188V83.4453H326.362V84.2188C326.135 84.2344 325.936 84.2539 325.764 84.2773C325.6 84.3008 325.448 84.3281 325.307 84.3594C325.088 84.4219 324.924 84.5469 324.815 84.7344C324.713 84.9141 324.662 85.1406 324.662 85.4141V92.9141C324.662 93.1875 324.709 93.4102 324.803 93.582C324.897 93.7461 325.057 93.875 325.283 93.9688C325.448 94.0469 325.623 94.1055 325.811 94.1445C326.006 94.1836 326.205 94.2109 326.408 94.2266V95ZM341.262 95H335.613V94.2266C335.793 94.2109 335.977 94.1953 336.164 94.1797C336.359 94.1641 336.527 94.1328 336.668 94.0859C336.887 94.0156 337.055 93.8945 337.172 93.7227C337.289 93.543 337.348 93.3125 337.348 93.0312V89.3516H332.203V92.9141C332.203 93.1797 332.258 93.3984 332.367 93.5703C332.477 93.7422 332.641 93.875 332.859 93.9688C333.023 94.0469 333.199 94.1055 333.387 94.1445C333.582 94.1836 333.781 94.2109 333.984 94.2266V95H328.336V94.2266C328.516 94.2109 328.699 94.1953 328.887 94.1797C329.082 94.1641 329.25 94.1328 329.391 94.0859C329.609 94.0156 329.77 93.8945 329.871 93.7227C329.98 93.543 330.035 93.3125 330.035 93.0312V85.5312C330.035 85.2734 329.98 85.0586 329.871 84.8867C329.762 84.707 329.598 84.5703 329.379 84.4766C329.176 84.3828 328.977 84.3203 328.781 84.2891C328.594 84.2578 328.418 84.2344 328.254 84.2188V83.4453H333.902V84.2188C333.676 84.2344 333.477 84.2539 333.305 84.2773C333.141 84.3008 332.988 84.3281 332.848 84.3594C332.629 84.4219 332.465 84.5469 332.355 84.7344C332.254 84.9141 332.203 85.1406 332.203 85.4141V88.3906H337.348V85.5312C337.348 85.2734 337.293 85.0586 337.184 84.8867C337.074 84.707 336.91 84.5703 336.691 84.4766C336.488 84.3828 336.289 84.3203 336.094 84.2891C335.906 84.2578 335.73 84.2344 335.566 84.2188V83.4453H341.215V84.2188C340.988 84.2344 340.789 84.2539 340.617 84.2773C340.453 84.3008 340.301 84.3281 340.16 84.3594C339.941 84.4219 339.777 84.5469 339.668 84.7344C339.566 84.9141 339.516 85.1406 339.516 85.4141V92.9141C339.516 93.1875 339.562 93.4102 339.656 93.582C339.75 93.7461 339.91 93.875 340.137 93.9688C340.301 94.0469 340.477 94.1055 340.664 94.1445C340.859 94.1836 341.059 94.2109 341.262 94.2266V95Z" fill="#232F2B"/>
<g filter="url(#filter0_d)">
<path d="M41.4062 60.1875C38.1562 60.1875 35.1146 59.6667 32.2812 58.625C29.4479 57.5625 26.9792 56.0312 24.875 54.0312C22.8125 52.0729 21.1875 49.6562 20 46.7812C18.8125 43.8854 18.2188 40.7083 18.2188 37.25C18.2188 33.8125 18.8125 30.6354 20 27.7188C21.2083 24.7812 22.8958 22.2396 25.0625 20.0938C27.1875 17.9896 29.7396 16.3646 32.7188 15.2188C35.6979 14.0521 38.8854 13.4688 42.2812 13.4688C44.7396 13.4688 46.9792 13.7708 49 14.375C51.0208 14.9583 52.7292 15.625 54.125 16.375L56.0625 14.6562H58.7812L59.0625 30.8438H56.3125C54.75 25.9062 52.875 22.2812 50.6875 19.9688C48.5 17.6562 45.8333 16.5 42.6875 16.5C38.7708 16.5 35.7917 18.2292 33.75 21.6875C31.7083 25.125 30.6875 29.9583 30.6875 36.1875C30.6875 39.7083 31.0312 42.7188 31.7188 45.2188C32.4271 47.6979 33.3438 49.6979 34.4688 51.2188C35.6771 52.8021 37.1042 53.9688 38.75 54.7188C40.3958 55.4479 42.2188 55.8125 44.2188 55.8125C47.1354 55.8125 49.7292 55.0208 52 53.4375C54.2917 51.8542 56.375 49.4583 58.25 46.25L60.9375 47.875C60.0417 49.7083 59.0208 51.3542 57.875 52.8125C56.7292 54.25 55.4062 55.4896 53.9062 56.5312C52.2604 57.6771 50.4375 58.5729 48.4375 59.2188C46.4583 59.8646 44.1146 60.1875 41.4062 60.1875ZM110.805 38.6562C112.138 39.5729 113.222 40.7292 114.055 42.125C114.888 43.5 115.305 45.125 115.305 47C115.305 49.25 114.826 51.1562 113.868 52.7188C112.93 54.2604 111.576 55.4792 109.805 56.375C107.93 57.3333 105.763 58.0104 103.305 58.4062C100.868 58.8021 97.9925 59 94.68 59H71.6488V56.5625C72.2946 56.5 73.1071 56.4062 74.0863 56.2812C75.0654 56.1562 75.7529 56.0104 76.1488 55.8438C76.9196 55.5312 77.4404 55.125 77.7113 54.625C78.0029 54.1042 78.1488 53.4375 78.1488 52.625V21.375C78.1488 20.625 78.0342 20 77.805 19.5C77.5758 19 77.0238 18.5625 76.1488 18.1875C75.5029 17.9167 74.7529 17.6979 73.8988 17.5312C73.0446 17.3438 72.2946 17.1979 71.6488 17.0938V14.6562H95.7425C101.805 14.6562 106.18 15.4896 108.868 17.1562C111.555 18.8229 112.899 21.2812 112.899 24.5312C112.899 26.0312 112.597 27.3542 111.993 28.5C111.388 29.625 110.524 30.6042 109.399 31.4375C108.378 32.2083 107.159 32.875 105.743 33.4375C104.326 34 102.805 34.4688 101.18 34.8438V35.4375C102.805 35.6042 104.493 35.9688 106.243 36.5312C107.993 37.0729 109.513 37.7812 110.805 38.6562ZM100.743 25.3125C100.743 22.8542 100.045 20.9375 98.6488 19.5625C97.2738 18.1875 95.2008 17.5 92.43 17.5C92.0342 17.5 91.5133 17.5208 90.8675 17.5625C90.2425 17.5833 89.7008 17.6042 89.2425 17.625V34.0625H90.8675C94.2425 34.0625 96.7321 33.2812 98.3363 31.7188C99.9404 30.1354 100.743 28 100.743 25.3125ZM102.93 46.5938C102.93 43.5104 102.013 41.1458 100.18 39.5C98.3467 37.8542 95.7113 37.0312 92.2738 37.0312C91.8779 37.0312 91.3467 37.0521 90.68 37.0938C90.0342 37.1146 89.555 37.1354 89.2425 37.1562V53.375C89.43 54.1458 90.0133 54.8021 90.9925 55.3438C91.9717 55.8646 93.1592 56.125 94.555 56.125C97.0342 56.125 99.0446 55.2917 100.586 53.625C102.149 51.9583 102.93 49.6146 102.93 46.5938ZM152.235 59H127.641V56.5625C128.204 56.5208 129.027 56.4583 130.11 56.375C131.214 56.2917 131.975 56.1667 132.391 56C133.162 55.6875 133.683 55.2812 133.954 54.7812C134.245 54.2604 134.391 53.6042 134.391 52.8125V21.375C134.391 20.6667 134.256 20.0417 133.985 19.5C133.714 18.9583 133.183 18.5208 132.391 18.1875C131.891 17.9792 131.152 17.7708 130.173 17.5625C129.193 17.3333 128.35 17.1771 127.641 17.0938V14.6562H152.235V17.0938C151.61 17.1562 150.829 17.25 149.891 17.375C148.954 17.4792 148.162 17.6354 147.516 17.8438C146.704 18.1146 146.162 18.5417 145.891 19.125C145.62 19.6875 145.485 20.3333 145.485 21.0625V52.4688C145.485 53.2188 145.62 53.8646 145.891 54.4062C146.183 54.9271 146.725 55.3542 147.516 55.6875C147.954 55.875 148.673 56.0625 149.673 56.25C150.693 56.4167 151.548 56.5208 152.235 56.5625V59ZM205.29 27.3438H202.884C202.238 25.4479 201.196 23.4167 199.759 21.25C198.342 19.0833 197.03 17.9167 195.821 17.75C195.155 17.6667 194.332 17.5938 193.352 17.5312C192.373 17.4688 191.53 17.4375 190.821 17.4375H189.352V52.2188C189.352 52.9688 189.488 53.6354 189.759 54.2188C190.03 54.7812 190.561 55.2292 191.352 55.5625C191.832 55.75 192.571 55.9479 193.571 56.1562C194.592 56.3438 195.457 56.4792 196.165 56.5625V59H171.446V56.5625C172.05 56.5 172.894 56.4167 173.977 56.3125C175.082 56.1875 175.832 56.0417 176.227 55.875C177.04 55.5417 177.582 55.0938 177.852 54.5312C178.123 53.9688 178.259 53.3021 178.259 52.5312V17.4375H176.79C176.082 17.4375 175.238 17.4688 174.259 17.5312C173.28 17.5938 172.457 17.6667 171.79 17.75C170.582 17.9167 169.259 19.0833 167.821 21.25C166.405 23.4167 165.373 25.4479 164.727 27.3438H162.321V14.6562H205.29V27.3438ZM256.533 19.5938C258.72 21.5938 260.449 24.0104 261.72 26.8438C263.012 29.6771 263.658 32.9062 263.658 36.5312C263.658 39.7604 263.116 42.8333 262.033 45.75C260.949 48.6667 259.387 51.1771 257.345 53.2812C255.199 55.4688 252.678 57.1771 249.783 58.4062C246.887 59.6146 243.439 60.2188 239.439 60.2188C236.21 60.2188 233.158 59.6875 230.283 58.625C227.408 57.5625 224.876 56.0208 222.689 54C220.522 52.0208 218.803 49.6146 217.533 46.7812C216.262 43.9479 215.626 40.7917 215.626 37.3125C215.626 33.6875 216.241 30.4062 217.47 27.4688C218.72 24.5104 220.428 21.9792 222.595 19.875C224.741 17.8125 227.283 16.2292 230.22 15.125C233.178 14 236.324 13.4375 239.658 13.4375C242.97 13.4375 246.074 13.9792 248.97 15.0625C251.887 16.1458 254.408 17.6562 256.533 19.5938ZM248.501 51.3125C249.439 49.4167 250.116 47.2708 250.533 44.875C250.949 42.4792 251.158 39.7708 251.158 36.75C251.158 34.1875 250.97 31.6979 250.595 29.2812C250.241 26.8438 249.626 24.6771 248.751 22.7812C247.855 20.8854 246.668 19.3646 245.189 18.2188C243.71 17.0729 241.866 16.5 239.658 16.5C235.887 16.5 233.022 18.2917 231.064 21.875C229.105 25.4375 228.126 30.4792 228.126 37C228.126 39.7708 228.335 42.3854 228.751 44.8438C229.189 47.3021 229.866 49.4479 230.783 51.2812C231.72 53.1354 232.908 54.5833 234.345 55.625C235.783 56.6458 237.553 57.1562 239.658 57.1562C241.72 57.1562 243.491 56.6354 244.97 55.5938C246.449 54.5521 247.626 53.125 248.501 51.3125ZM307.087 35.7812V21.3438C307.087 20.6146 306.962 20 306.712 19.5C306.462 19 305.931 18.5625 305.119 18.1875C304.64 17.9583 303.921 17.7396 302.962 17.5312C302.025 17.3021 301.327 17.1562 300.869 17.0938V14.6562H324.681V17.0938C324.015 17.1354 323.265 17.2292 322.431 17.375C321.598 17.5 320.848 17.6667 320.181 17.875C319.39 18.1458 318.858 18.5729 318.587 19.1562C318.317 19.7396 318.181 20.375 318.181 21.0625V52.4688C318.181 53.2188 318.317 53.8542 318.587 54.375C318.858 54.8958 319.39 55.3333 320.181 55.6875C320.681 55.8958 321.4 56.0833 322.337 56.25C323.296 56.4167 324.077 56.5208 324.681 56.5625V59H300.4V56.5625C300.962 56.5208 301.775 56.4479 302.837 56.3438C303.9 56.2188 304.64 56.0729 305.056 55.9062C305.827 55.5938 306.358 55.1875 306.65 54.6875C306.942 54.1667 307.087 53.5104 307.087 52.7188V38.7812C306.129 39.3854 305.119 39.9896 304.056 40.5938C302.994 41.1771 301.931 41.6667 300.869 42.0625C299.577 42.5625 298.41 42.9375 297.369 43.1875C296.348 43.4167 295.035 43.5312 293.431 43.5312C288.619 43.5312 285.14 42.5104 282.994 40.4688C280.848 38.4271 279.775 35.3438 279.775 31.2188V21.3438C279.775 20.6146 279.64 20 279.369 19.5C279.119 19 278.587 18.5625 277.775 18.1875C277.233 17.9375 276.515 17.7083 275.619 17.5C274.744 17.2917 274.035 17.1562 273.494 17.0938V14.6562H297.119V17.0938C296.452 17.1354 295.692 17.2396 294.837 17.4062C293.983 17.5521 293.306 17.7083 292.806 17.875C292.015 18.1458 291.494 18.5729 291.244 19.1562C290.994 19.7396 290.869 20.375 290.869 21.0625V28.25C290.869 31.6875 291.4 34.1667 292.462 35.6875C293.525 37.2083 295.41 37.9688 298.119 37.9688C299.973 37.9688 301.64 37.75 303.119 37.3125C304.598 36.8542 305.921 36.3438 307.087 35.7812Z" fill="#232F2B"/>
</g>
<defs>
<filter id="filter0_d" x="14.2188" y="13.4375" width="314.462" height="54.7812" filterUnits="userSpaceOnUse" color-interpolation-filters="sRGB">
<feFlood flood-opacity="0" result="BackgroundImageFix"/>
<feColorMatrix in="SourceAlpha" type="matrix" values="0 0 0 0 0 0 0 0 0 0 0 0 0 0 0 0 0 0 127 0"/>
<feOffset dy="4"/>
<feGaussianBlur stdDeviation="2"/>
<feColorMatrix type="matrix" values="0 0 0 0 0 0 0 0 0 0 0 0 0 0 0 0 0 0 0.25 0"/>
<feBlend mode="normal" in2="BackgroundImageFix" result="effect1_dropShadow"/>
<feBlend mode="normal" in="SourceGraphic" in2="effect1_dropShadow" result="shape"/>
</filter>
</defs>
</svg>
