<svg xmlns="http://www.w3.org/2000/svg"
     xmlns:xlink="http://www.w3.org/1999/xlink"
     viewBox="0 0 239 72">
    <g fill="#314f50">
        <path d="M80 41c-3-3.1-4.4-7.6-4.4-13.3 0-3.8.7-7 2-9.8 1.3-2.7 3.1-4.8 5.5-6.2s5.1-2.1 8.2-2.1c1.9 0 3.8.5 5.7 1.6.7.4 1.4.9 2.2 1.6.6-.9 1.1-1.5 1.7-2 .6-.4.9-.7 1-.7h1.2v9.4h-2c-.4-1.6-1.1-3-1.9-4.3a10.81 10.81 0 0 0-2.9-3.1c-1.2-.8-2.5-1.2-4-1.2-2.3 0-4.2 1.3-5.7 4-1.5 2.6-2.2 6.9-2.2 12.9s.8 10.3 2.4 12.9 3.9 3.9 6.7 3.9c1.5 0 3-.4 4.4-1.3a10.36 10.36 0 0 0 3.4-3.5c.9-1.5 1.3-3 1.3-4.6h1.2c0 1.9-.5 3.6-1.5 5.3-1 1.6-2.4 2.9-4.1 3.9s-3.7 1.5-5.8 1.5C87 45.7 82.9 44.2 80 41zm27.4 3.3l3-.7V21.8l-3-.7v-.7H120c2.9 0 5.2.3 7.1.9s3.2 1.4 4 2.3 1.2 1.9 1.2 3c0 1.3-.4 2.4-1.3 3.2-.8.8-1.9 1.4-3.2 1.8-1.4.4-2.9.7-4.4.7v.2c1.9 0 3.7.3 5.2.7 1.5.5 2.8 1.1 3.7 2 1 .8 1.5 1.9 1.5 3.2 0 1.9-1 3.5-3 4.8s-5.3 1.9-9.8 1.9h-13.6v-.8zM120 31.7c1.2 0 2.1-.5 3-1.4.8-1 1.2-2.2 1.2-3.8 0-1.4-.4-2.6-1.2-3.6-.8-.9-1.8-1.4-3-1.4h-1.7v10.1h1.7zm1 12.1c1.4 0 2.6-.5 3.4-1.4.9-1 1.3-2.3 1.3-4s-.4-3-1.3-4-2-1.4-3.4-1.4h-2.7v10.9h2.7zm16.3.5l3-.7V21.8l-3-.7v-.7h6.4c3 0 4.4 1.5 4.4 4.4v18.8l3 .7v.7h-13.8v-.7zm4-27.3c-.8-.8-1.3-1.8-1.3-2.9a3.74 3.74 0 0 1 1.3-2.9c.8-.8 1.8-1.3 2.9-1.3a3.74 3.74 0 0 1 2.9 1.3c.8.8 1.3 1.8 1.3 2.9a3.74 3.74 0 0 1-1.3 2.9c-.8.8-1.8 1.3-2.9 1.3a3.74 3.74 0 0 1-2.9-1.3zm17.5 27.3l3-.7v-22h-3.7c0 1.8-.5 3.6-1.6 5.5-.4.7-1 1.3-1.6 1.9h-1.5v-8.7h24.7V29h-1.5c-.6-.6-1.2-1.2-1.6-1.9-1.1-1.8-1.6-3.6-1.6-5.5h-3.7v22l3 .7v.7h-13.8v-.7zm26-2c-2.3-2.3-3.5-5.5-3.5-9.6s1.2-7.3 3.5-9.6 5.5-3.5 9.6-3.5 7.3 1.2 9.6 3.5 3.5 5.5 3.5 9.6-1.2 7.3-3.5 9.6-5.5 3.5-9.6 3.5c-4.1-.1-7.3-1.2-9.6-3.5zm12.9-.3c.9-1.8 1.4-5 1.4-9.3 0-4.4-.5-7.5-1.4-9.3s-2-2.8-3.3-2.8-2.4.9-3.3 2.8c-.9 1.8-1.4 5-1.4 9.3 0 4.4.5 7.5 1.4 9.3s2 2.8 3.3 2.8 2.4-1 3.3-2.8zm27.3 2.3l3-.7v-8.7c-.7.4-1.5.7-2.4.9a13.33 13.33 0 0 1-2.8.3c-3.2 0-5.6-.6-7.2-1.9s-2.4-3-2.4-5.2v-7.2l-3-.7v-.7H224v.6l-3 .7v7.2c0 2.1.3 3.7 1 4.6.6.9 1.6 1.4 2.7 1.4 1.3 0 2.4-.4 3.2-1.2V21.8l-3-.7v-.7h13.8v.6l-3 .7v21.8l3 .7v.8H225v-.7zM34.8 42.2h.4c3.9-4.7 12.3-10.5 30.1-14.1v-2.2c-21.2 4.4-28.2 11.9-30.5 16.3zm-4.6 0h.5c-2-4.4-8.6-12.2-30.6-16.5V28c18.3 3.6 26.5 9.5 30.1 14.2zm-2.2 0C19 34.1.1 29.9.1 29.9v3.9c11.2 2.2 18.7 5.3 23.6 8.4H28zm9.5 0h4.8c5-3.1 12.3-6.1 23.1-8.2v-4.1s-18.9 4.2-27.9 12.3zm-4.8-1.1C32.7 27.3.1 19.9.1 19.9v3.9c24.2 4.7 30.8 13.5 32.6 18.4 2.1-4.8 9.1-13.4 32.6-18.2v-4.1c.1 0-32.6 7.4-32.6 21.2z"/>
        <path d="M.1 41.6h65.2v2.8H.1z"/>
    </g>
    <g fill="#f1b200">
        <path d="M32.7 20.2h4.9l-2.4 5.5-2.5 5.5-4.8-11z"/>
        <path d="M32.7 20.2h4.9l-2.4-5.4-2.5-5.5-2.4 5.5-2.4 5.4z"/>
    </g>
    <g fill="#314f50">
        <path d="M4,57.9l3.4,4.6H6l-2.8-3.9L2,59.8v2.7H1v-7.7h1v3.8l3.9-3.8h1.3L4,57.9z"/>
        <use xlink:href="#B"/>
        <use xlink:href="#C"/>
        <path d="M39.5 62.5l-2.8-3.8-.9.9v2.9h-1v-2.9l-.9-.9-2.8 3.8h-1.3l3.4-4.5-3.1-3.1h1.3l3.4 3.6v-3.6h1v3.6l3.4-3.6h1.3L37.4 58l3.4 4.5h-1.3zm7.4-4.6l3.4 4.6H49l-2.8-3.9-1.3 1.2v2.7h-1v-7.7h1v3.8l3.9-3.8h1.3l-3.2 3.1zm13.2.7c0 2.2-1.2 4.1-3.7 4.1s-3.7-1.9-3.7-4.1c0-2.4 1.4-3.9 3.7-3.9 2.4 0 3.7 1.6 3.7 3.9zm-6.3.1c0 1.9 1 3.1 2.7 3.1 1.6 0 2.6-1.2 2.6-3.1s-1-3.1-2.7-3.1c-1.8-.1-2.6 1.4-2.6 3.1zM67 54.8c1.3 0 2.4.5 2.4 1.9 0 .8-.4 1.4-1.1 1.6.9.2 1.5.9 1.5 1.9 0 1.8-1.4 2.2-2.9 2.2h-3.1v-7.7H67zm-2.3 3.3h1.8c.9 0 1.9-.1 1.9-1.2s-.9-1.2-1.8-1.2h-1.9v2.4zm0 3.5h2c1 0 2-.1 2-1.4s-1.2-1.3-2.2-1.3h-1.8v2.7z"/>
        <use xlink:href="#C" x="52.9"/>
        <path d="M83.6 54.8h1v6.5l3.8-6.5h1.3v7.7h-1V56l-3.8 6.5h-1.3v-7.7zm3-.5c-.9 0-1.5-.6-1.6-1.5h.5c.2.5.5.8 1.1.8s.9-.3 1.1-.8h.5c-.1.9-.6 1.5-1.6 1.5zm13.5 8.2h-1v-7.7h1v7.7z"/>
        <use xlink:href="#B" x="93.7"/>
        <path d="M119.7 55.7h-2.6v6.8h-1v-6.8h-2.6v-.9h6.1v.9zm8.5 0h-4.3v2.4h4v.9h-4v2.6h4.3v.9h-5.4v-7.7h5.3v.9zm6.8-.9c1.5 0 2.5.6 2.5 2.2 0 1.7-1.1 2.3-2.6 2.3h-2.1v3.1h-1v-7.7h3.2zm-2.1 3.7h1.9c1 0 1.7-.3 1.7-1.4 0-1.2-.9-1.4-1.9-1.4h-1.8v2.8z"/>
        <use xlink:href="#B" x="130.6"/>
        <path d="M156.6 55.7h-4.3v2.4h4v.9h-4v2.6h4.3v.9h-5.4v-7.7h5.3v.9zm8.9 0H163v6.8h-1v-6.8h-2.6v-.9h6.1v.9zm4.7 4.3H167v-.9h3.1v.9zm5.1-5.2l2.5 6.5 2.4-6.5h1.4v7.7h-1v-6.4l-2.4 6.4h-.9l-2.4-6.4v6.4h-1v-7.7h1.4zm16.5 7.7h-1.1l-.8-2.3h-3.2l-.9 2.3h-1.1l3-7.7h1.1l3 7.7zm-3.5-6.7l-1.3 3.5h2.6l-1.3-3.5zm6.7 6.7v-7.7h5v.9h-4v6.8h-1zm13.2 0h-1.1l-.8-2.3H203l-.9 2.3H201l3-7.7h1.1l3.1 7.7zm-3.6-6.7l-1.3 3.5h2.6l-1.3-3.5zm9.5 6.9c-1.8 0-3.2-.8-3.2-2.7h1c0 1.4 1.1 1.9 2.3 1.9 1.1 0 1.9-.6 1.9-1.6 0-1.1-.9-1.3-1.9-1.3h-.7v-.8h.7c1 0 1.7-.3 1.7-1.4 0-.9-.8-1.2-1.6-1.2-1.1 0-1.8.5-1.9 1.6h-1c.1-1.6 1.3-2.4 2.9-2.4 1.5 0 2.6.6 2.6 2.1 0 .8-.6 1.5-1.3 1.7h0c1 .2 1.5 1 1.5 1.8-.1.8-.9 2.3-3 2.3z"/>
        <use xlink:href="#C" x="200.1"/>
        <use xlink:href="#B" x="220.3"/>
    </g>
    <defs>
        <path id="B" d="M16.6 62.5h-1v-3.6h-4v3.6h-1v-7.7h1V58h4v-3.2h1v7.7z"/>
        <path id="C" d="M20.6 54.8h1v6.5l3.8-6.5h1.3v7.7h-1V56l-3.8 6.5h-1.3v-7.7z"/>
    </defs>
</svg>
