<?xml version="1.0" encoding="utf-8"?>
<!-- Generator: Adobe Illustrator 24.0.1, SVG Export Plug-In . SVG Version: 6.00 Build 0)  -->
<svg version="1.1" id="Шар_1" xmlns="http://www.w3.org/2000/svg" xmlns:xlink="http://www.w3.org/1999/xlink" x="0px" y="0px"
	 viewBox="0 0 239 72" style="enable-background:new 0 0 239 72;" xml:space="preserve">
<style type="text/css">
	.st0{fill:#314F50;}
	.st1{fill:#F1B200;}
</style>
<g>
	<g>
		<path class="st0" d="M80,41c-3-3.1-4.4-7.6-4.4-13.3c0-3.8,0.7-7,2-9.8c1.3-2.7,3.1-4.8,5.5-6.2c2.4-1.4,5.1-2.1,8.2-2.1
			c1.9,0,3.8,0.5,5.7,1.6c0.7,0.4,1.4,0.9,2.2,1.6c0.6-0.9,1.1-1.5,1.7-2c0.6-0.4,0.9-0.7,1-0.7h1.2v9.4h-2c-0.4-1.6-1.1-3-1.9-4.3
			c-0.8-1.3-1.8-2.3-2.9-3.1c-1.2-0.8-2.5-1.2-4-1.2c-2.3,0-4.2,1.3-5.7,4c-1.5,2.6-2.2,6.9-2.2,12.9c0,6,0.8,10.3,2.4,12.9
			c1.6,2.6,3.9,3.9,6.7,3.9c1.5,0,3-0.4,4.4-1.3c1.4-0.9,2.5-2,3.4-3.5c0.9-1.5,1.3-3,1.3-4.6h1.2c0,1.9-0.5,3.6-1.5,5.3
			c-1,1.6-2.4,2.9-4.1,3.9c-1.7,1-3.7,1.5-5.8,1.5C87,45.7,82.9,44.2,80,41z"/>
		<path class="st0" d="M107.4,44.3l3-0.7V21.8l-3-0.7v-0.7H120c2.9,0,5.2,0.3,7.1,0.9c1.9,0.6,3.2,1.4,4,2.3c0.8,0.9,1.2,1.9,1.2,3
			c0,1.3-0.4,2.4-1.3,3.2c-0.8,0.8-1.9,1.4-3.2,1.8c-1.4,0.4-2.9,0.7-4.4,0.7v0.2c1.9,0,3.7,0.3,5.2,0.7c1.5,0.5,2.8,1.1,3.7,2
			c1,0.8,1.5,1.9,1.5,3.2c0,1.9-1,3.5-3,4.8c-2,1.3-5.3,1.9-9.8,1.9h-13.6V44.3z M120,31.7c1.2,0,2.1-0.5,3-1.4
			c0.8-1,1.2-2.2,1.2-3.8c0-1.4-0.4-2.6-1.2-3.6c-0.8-0.9-1.8-1.4-3-1.4h-1.7v10.1H120z M121,43.8c1.4,0,2.6-0.5,3.4-1.4
			c0.9-1,1.3-2.3,1.3-4c0-1.7-0.4-3-1.3-4c-0.9-1-2-1.4-3.4-1.4h-2.7v10.9H121z"/>
		<path class="st0" d="M137.3,44.3l3-0.7V21.8l-3-0.7v-0.7h6.4c3,0,4.4,1.5,4.4,4.4v18.8l3,0.7V45h-13.8V44.3z M141.3,17
			c-0.8-0.8-1.3-1.8-1.3-2.9c0-1.1,0.4-2.1,1.3-2.9c0.8-0.8,1.8-1.3,2.9-1.3c1.1,0,2.1,0.4,2.9,1.3c0.8,0.8,1.3,1.8,1.3,2.9
			c0,1.1-0.4,2.1-1.3,2.9c-0.8,0.8-1.8,1.3-2.9,1.3C143.1,18.3,142.1,17.9,141.3,17z"/>
		<path class="st0" d="M158.8,44.3l3-0.7v-22h-3.7c0,1.8-0.5,3.6-1.6,5.5c-0.4,0.7-1,1.3-1.6,1.9h-1.5v-8.7h24.7v8.7h-1.5
			c-0.6-0.6-1.2-1.2-1.6-1.9c-1.1-1.8-1.6-3.6-1.6-5.5h-3.7v22l3,0.7V45h-13.8V44.3z"/>
		<path class="st0" d="M184.8,42.3c-2.3-2.3-3.5-5.5-3.5-9.6c0-4.1,1.2-7.3,3.5-9.6s5.5-3.5,9.6-3.5c4.1,0,7.3,1.2,9.6,3.5
			c2.3,2.3,3.5,5.5,3.5,9.6c0,4.1-1.2,7.3-3.5,9.6c-2.3,2.3-5.5,3.5-9.6,3.5C190.3,45.7,187.1,44.6,184.8,42.3z M197.7,42
			c0.9-1.8,1.4-5,1.4-9.3c0-4.4-0.5-7.5-1.4-9.3c-0.9-1.8-2-2.8-3.3-2.8c-1.3,0-2.4,0.9-3.3,2.8c-0.9,1.8-1.4,5-1.4,9.3
			c0,4.4,0.5,7.5,1.4,9.3c0.9,1.8,2,2.8,3.3,2.8C195.7,44.8,196.8,43.8,197.7,42z"/>
		<path class="st0" d="M225,44.3l3-0.7v-8.7c-0.7,0.4-1.5,0.7-2.4,0.9c-0.9,0.2-1.9,0.3-2.8,0.3c-3.2,0-5.6-0.6-7.2-1.9
			c-1.6-1.3-2.4-3-2.4-5.2v-7.2l-3-0.7v-0.7H224V21l-3,0.7v7.2c0,2.1,0.3,3.7,1,4.6c0.6,0.9,1.6,1.4,2.7,1.4c1.3,0,2.4-0.4,3.2-1.2
			V21.8l-3-0.7v-0.7h13.8V21l-3,0.7v21.8l3,0.7V45H225V44.3z"/>
	</g>
	<g>
		<path class="st0" d="M34.8,42.2h0.4c3.9-4.7,12.3-10.5,30.1-14.1v-2.2C44.1,30.3,37.1,37.8,34.8,42.2z"/>
		<path class="st0" d="M30.2,42.2h0.5c-2-4.4-8.6-12.2-30.6-16.5V28C18.4,31.6,26.6,37.5,30.2,42.2z"/>
		<path class="st0" d="M28,42.2C19,34.1,0.1,29.9,0.1,29.9v3.9c11.2,2.2,18.7,5.3,23.6,8.4H28z"/>
		<path class="st0" d="M37.5,42.2h4.8c5-3.1,12.3-6.1,23.1-8.2v-4.1C65.4,29.9,46.5,34.1,37.5,42.2z"/>
		<path class="st0" d="M32.7,41.1c0-13.8-32.6-21.2-32.6-21.2v3.9c24.2,4.7,30.8,13.5,32.6,18.4c2.1-4.8,9.1-13.4,32.6-18.2v-4.1
			C65.4,19.9,32.7,27.3,32.7,41.1z"/>
		<rect x="0.1" y="41.6" class="st0" width="65.2" height="2.8"/>
		<polygon class="st1" points="32.7,20.2 37.6,20.2 35.2,25.7 32.7,31.2 30.3,25.7 27.9,20.2 		"/>
		<polygon class="st1" points="32.7,20.2 37.6,20.2 35.2,14.8 32.7,9.3 30.3,14.8 27.9,20.2 		"/>
	</g>
	<g>
		<path class="st0" d="M4,57.9l3.4,4.6H6l-2.8-3.9L2,59.8v2.7H1v-7.7h1v3.8l3.9-3.8h1.3L4,57.9z"/>
		<path class="st0" d="M16.6,62.5h-1v-3.6h-4v3.6h-1v-7.7h1V58h4v-3.2h1V62.5z"/>
		<path class="st0" d="M20.6,54.8h1v6.5h0l3.8-6.5h1.3v7.7h-1V56h0l-3.8,6.5h-1.3V54.8z"/>
		<path class="st0" d="M39.5,62.5l-2.8-3.8l-0.9,0.9v2.9h-1v-2.9l-0.9-0.9l-2.8,3.8h-1.3l3.4-4.5l-3.1-3.1h1.3l3.4,3.6v-3.6h1v3.6
			l3.4-3.6h1.3L37.4,58l3.4,4.5H39.5z"/>
		<path class="st0" d="M46.9,57.9l3.4,4.6h-1.3l-2.8-3.9l-1.3,1.2v2.7h-1v-7.7h1v3.8l3.9-3.8h1.3L46.9,57.9z"/>
		<path class="st0" d="M60.1,58.6c0,2.2-1.2,4.1-3.7,4.1c-2.5,0-3.7-1.9-3.7-4.1c0-2.4,1.4-3.9,3.7-3.9
			C58.8,54.7,60.1,56.3,60.1,58.6z M53.8,58.7c0,1.9,1,3.1,2.7,3.1c1.6,0,2.6-1.2,2.6-3.1c0-1.9-1-3.1-2.7-3.1
			C54.6,55.5,53.8,57,53.8,58.7z"/>
		<path class="st0" d="M67,54.8c1.3,0,2.4,0.5,2.4,1.9c0,0.8-0.4,1.4-1.1,1.6c0.9,0.2,1.5,0.9,1.5,1.9c0,1.8-1.4,2.2-2.9,2.2h-3.1
			v-7.7H67z M64.7,58.1h1.8c0.9,0,1.9-0.1,1.9-1.2s-0.9-1.2-1.8-1.2h-1.9V58.1z M64.7,61.6h2c1,0,2-0.1,2-1.4c0-1.3-1.2-1.3-2.2-1.3
			h-1.8V61.6z"/>
		<path class="st0" d="M73.5,54.8h1v6.5h0l3.8-6.5h1.3v7.7h-1V56h0l-3.8,6.5h-1.3V54.8z"/>
		<path class="st0" d="M83.6,54.8h1v6.5h0l3.8-6.5h1.3v7.7h-1V56h0l-3.8,6.5h-1.3V54.8z M86.6,54.3c-0.9,0-1.5-0.6-1.6-1.5h0.5
			c0.2,0.5,0.5,0.8,1.1,0.8c0.6,0,0.9-0.3,1.1-0.8h0.5C88.1,53.7,87.6,54.3,86.6,54.3z"/>
		<path class="st0" d="M100.1,62.5h-1v-7.7h1V62.5z"/>
		<path class="st0" d="M110.3,62.5h-1v-3.6h-4v3.6h-1v-7.7h1V58h4v-3.2h1V62.5z"/>
		<path class="st0" d="M119.7,55.7h-2.6v6.8h-1v-6.8h-2.6v-0.9h6.1V55.7z"/>
		<path class="st0" d="M128.2,55.7h-4.3v2.4h4V59h-4v2.6h4.3v0.9h-5.4v-7.7h5.3V55.7z"/>
		<path class="st0" d="M135,54.8c1.5,0,2.5,0.6,2.5,2.2c0,1.7-1.1,2.3-2.6,2.3h-2.1v3.1h-1v-7.7H135z M132.9,58.5h1.9
			c1,0,1.7-0.3,1.7-1.4c0-1.2-0.9-1.4-1.9-1.4h-1.8V58.5z"/>
		<path class="st0" d="M147.2,62.5h-1v-3.6h-4v3.6h-1v-7.7h1V58h4v-3.2h1V62.5z"/>
		<path class="st0" d="M156.6,55.7h-4.3v2.4h4V59h-4v2.6h4.3v0.9h-5.4v-7.7h5.3V55.7z"/>
		<path class="st0" d="M165.5,55.7H163v6.8h-1v-6.8h-2.6v-0.9h6.1V55.7z"/>
		<path class="st0" d="M170.2,60H167v-0.9h3.1V60z"/>
		<path class="st0" d="M175.3,54.8l2.5,6.5l2.4-6.5h1.4v7.7h-1v-6.4l-2.4,6.4h-0.9l-2.4-6.4v6.4h-1v-7.7H175.3z"/>
		<path class="st0" d="M191.8,62.5h-1.1l-0.8-2.3h-3.2l-0.9,2.3h-1.1l3-7.7h1.1L191.8,62.5z M188.3,55.8l-1.3,3.5h2.6L188.3,55.8z"
			/>
		<path class="st0" d="M195,62.5v-7.7h5v0.9h-4v6.8H195z"/>
		<path class="st0" d="M208.2,62.5h-1.1l-0.8-2.3H203l-0.9,2.3h-1.1l3-7.7h1.1L208.2,62.5z M204.6,55.8l-1.3,3.5h2.6L204.6,55.8z"/>
		<path class="st0" d="M214.1,62.7c-1.8,0-3.2-0.8-3.2-2.7h1c0,1.4,1.1,1.9,2.3,1.9c1.1,0,1.9-0.6,1.9-1.6c0-1.1-0.9-1.3-1.9-1.3
			c-0.2,0-0.5,0-0.7,0v-0.8c0.2,0,0.5,0,0.7,0c1,0,1.7-0.3,1.7-1.4c0-0.9-0.8-1.2-1.6-1.2c-1.1,0-1.8,0.5-1.9,1.6h-1
			c0.1-1.6,1.3-2.4,2.9-2.4c1.5,0,2.6,0.6,2.6,2.1c0,0.8-0.6,1.5-1.3,1.7v0c1,0.2,1.5,1,1.5,1.8C217,61.2,216.2,62.7,214.1,62.7z"/>
		<path class="st0" d="M220.7,54.8h1v6.5h0l3.8-6.5h1.3v7.7h-1V56h0l-3.8,6.5h-1.3V54.8z"/>
		<path class="st0" d="M236.9,62.5h-1v-3.6h-4v3.6h-1v-7.7h1V58h4v-3.2h1V62.5z"/>
	</g>
</g>
</svg>
