<?xml version="1.0" encoding="UTF-8" standalone="no"?>
<!DOCTYPE svg PUBLIC "-//W3C//DTD SVG 1.1//EN"
 "http://www.w3.org/Graphics/SVG/1.1/DTD/svg11.dtd">
<!-- Generated by graphviz version 2.43.0 (0)
 -->
<!-- Title: G Pages: 1 -->
<svg width="1041pt" height="291pt"
 viewBox="0.00 0.00 1041.20 291.20" xmlns="http://www.w3.org/2000/svg" xmlns:xlink="http://www.w3.org/1999/xlink">
<g id="graph0" class="graph" transform="scale(1 1) rotate(0) translate(21.6 269.6)">
<title>G</title>
<polygon fill="#111111" stroke="transparent" points="-21.6,21.6 -21.6,-269.6 1019.6,-269.6 1019.6,21.6 -21.6,21.6"/>
<!-- ../products/list/products&#45;list.module.ts -->
<g id="node1" class="node">
<title>../products/list/products&#45;list.module.ts</title>
<path fill="none" stroke="#cfffac" d="M957.83,-64C957.83,-64 734.17,-64 734.17,-64 730.33,-64 726.5,-60.17 726.5,-56.33 726.5,-56.33 726.5,-48.67 726.5,-48.67 726.5,-44.83 730.33,-41 734.17,-41 734.17,-41 957.83,-41 957.83,-41 961.67,-41 965.5,-44.83 965.5,-48.67 965.5,-48.67 965.5,-56.33 965.5,-56.33 965.5,-60.17 961.67,-64 957.83,-64"/>
<text text-anchor="middle" x="846" y="-48.8" font-family="Arial" font-size="14.00" fill="#cfffac">../products/list/products&#45;list.module.ts</text>
</g>
<!-- ../subcategories/list/subcategories&#45;list.module.ts -->
<g id="node2" class="node">
<title>../subcategories/list/subcategories&#45;list.module.ts</title>
<path fill="none" stroke="#cfffac" d="M990.33,-23C990.33,-23 701.67,-23 701.67,-23 697.83,-23 694,-19.17 694,-15.33 694,-15.33 694,-7.67 694,-7.67 694,-3.83 697.83,0 701.67,0 701.67,0 990.33,0 990.33,0 994.17,0 998,-3.83 998,-7.67 998,-7.67 998,-15.33 998,-15.33 998,-19.17 994.17,-23 990.33,-23"/>
<text text-anchor="middle" x="846" y="-7.8" font-family="Arial" font-size="14.00" fill="#cfffac">../subcategories/list/subcategories&#45;list.module.ts</text>
</g>
<!-- categories.module.ts -->
<g id="node3" class="node">
<title>categories.module.ts</title>
<path fill="none" stroke="#cfffac" d="M502.33,-84C502.33,-84 375.67,-84 375.67,-84 371.83,-84 368,-80.17 368,-76.33 368,-76.33 368,-68.67 368,-68.67 368,-64.83 371.83,-61 375.67,-61 375.67,-61 502.33,-61 502.33,-61 506.17,-61 510,-64.83 510,-68.67 510,-68.67 510,-76.33 510,-76.33 510,-80.17 506.17,-84 502.33,-84"/>
<text text-anchor="middle" x="439" y="-68.8" font-family="Arial" font-size="14.00" fill="#cfffac">categories.module.ts</text>
</g>
<!-- details/categories&#45;details.module.ts -->
<g id="node4" class="node">
<title>details/categories&#45;details.module.ts</title>
<path fill="none" stroke="#c6c5fe" d="M545.33,-43C545.33,-43 332.67,-43 332.67,-43 328.83,-43 325,-39.17 325,-35.33 325,-35.33 325,-27.67 325,-27.67 325,-23.83 328.83,-20 332.67,-20 332.67,-20 545.33,-20 545.33,-20 549.17,-20 553,-23.83 553,-27.67 553,-27.67 553,-35.33 553,-35.33 553,-39.17 549.17,-43 545.33,-43"/>
<text text-anchor="middle" x="439" y="-27.8" font-family="Arial" font-size="14.00" fill="#c6c5fe">details/categories&#45;details.module.ts</text>
</g>
<!-- details/categories&#45;details.module.ts&#45;&gt;../products/list/products&#45;list.module.ts -->
<g id="edge1" class="edge">
<title>details/categories&#45;details.module.ts&#45;&gt;../products/list/products&#45;list.module.ts</title>
<path fill="none" stroke="#757575" d="M553.08,-37.36C603.76,-39.99 663.79,-43.1 716.19,-45.82"/>
<polygon fill="#757575" stroke="#757575" points="716.06,-49.32 726.23,-46.34 716.42,-42.33 716.06,-49.32"/>
</g>
<!-- details/categories&#45;details.module.ts&#45;&gt;../subcategories/list/subcategories&#45;list.module.ts -->
<g id="edge2" class="edge">
<title>details/categories&#45;details.module.ts&#45;&gt;../subcategories/list/subcategories&#45;list.module.ts</title>
<path fill="none" stroke="#757575" d="M553.08,-25.92C593.58,-23.92 640.04,-21.62 683.81,-19.46"/>
<polygon fill="#757575" stroke="#757575" points="684.17,-22.95 693.99,-18.96 683.83,-15.96 684.17,-22.95"/>
</g>
<!-- details/components/categories&#45;details/categories&#45;details.component.ts -->
<g id="node5" class="node">
<title>details/components/categories&#45;details/categories&#45;details.component.ts</title>
<path fill="none" stroke="#cfffac" d="M650.33,-125C650.33,-125 227.67,-125 227.67,-125 223.83,-125 220,-121.17 220,-117.33 220,-117.33 220,-109.67 220,-109.67 220,-105.83 223.83,-102 227.67,-102 227.67,-102 650.33,-102 650.33,-102 654.17,-102 658,-105.83 658,-109.67 658,-109.67 658,-117.33 658,-117.33 658,-121.17 654.17,-125 650.33,-125"/>
<text text-anchor="middle" x="439" y="-109.8" font-family="Arial" font-size="14.00" fill="#cfffac">details/components/categories&#45;details/categories&#45;details.component.ts</text>
</g>
<!-- details/components/index.ts -->
<g id="node6" class="node">
<title>details/components/index.ts</title>
<path fill="none" stroke="#c6c5fe" d="M176.33,-125C176.33,-125 7.67,-125 7.67,-125 3.83,-125 0,-121.17 0,-117.33 0,-117.33 0,-109.67 0,-109.67 0,-105.83 3.83,-102 7.67,-102 7.67,-102 176.33,-102 176.33,-102 180.17,-102 184,-105.83 184,-109.67 184,-109.67 184,-117.33 184,-117.33 184,-121.17 180.17,-125 176.33,-125"/>
<text text-anchor="middle" x="92" y="-109.8" font-family="Arial" font-size="14.00" fill="#c6c5fe">details/components/index.ts</text>
</g>
<!-- details/components/index.ts&#45;&gt;details/components/categories&#45;details/categories&#45;details.component.ts -->
<g id="edge3" class="edge">
<title>details/components/index.ts&#45;&gt;details/components/categories&#45;details/categories&#45;details.component.ts</title>
<path fill="none" stroke="#757575" d="M184.1,-113.5C192.36,-113.5 200.96,-113.5 209.76,-113.5"/>
<polygon fill="#757575" stroke="#757575" points="209.8,-117 219.8,-113.5 209.8,-110 209.8,-117"/>
</g>
<!-- details/index.ts -->
<g id="node7" class="node">
<title>details/index.ts</title>
<path fill="none" stroke="#c6c5fe" d="M137.33,-43C137.33,-43 46.67,-43 46.67,-43 42.83,-43 39,-39.17 39,-35.33 39,-35.33 39,-27.67 39,-27.67 39,-23.83 42.83,-20 46.67,-20 46.67,-20 137.33,-20 137.33,-20 141.17,-20 145,-23.83 145,-27.67 145,-27.67 145,-35.33 145,-35.33 145,-39.17 141.17,-43 137.33,-43"/>
<text text-anchor="middle" x="92" y="-27.8" font-family="Arial" font-size="14.00" fill="#c6c5fe">details/index.ts</text>
</g>
<!-- details/index.ts&#45;&gt;details/categories&#45;details.module.ts -->
<g id="edge4" class="edge">
<title>details/index.ts&#45;&gt;details/categories&#45;details.module.ts</title>
<path fill="none" stroke="#757575" d="M145.02,-31.5C189.87,-31.5 256.4,-31.5 314.74,-31.5"/>
<polygon fill="#757575" stroke="#757575" points="314.78,-35 324.78,-31.5 314.78,-28 314.78,-35"/>
</g>
<!-- index.ts -->
<g id="node8" class="node">
<title>index.ts</title>
<path fill="none" stroke="#c6c5fe" d="M115.83,-84C115.83,-84 68.17,-84 68.17,-84 64.33,-84 60.5,-80.17 60.5,-76.33 60.5,-76.33 60.5,-68.67 60.5,-68.67 60.5,-64.83 64.33,-61 68.17,-61 68.17,-61 115.83,-61 115.83,-61 119.67,-61 123.5,-64.83 123.5,-68.67 123.5,-68.67 123.5,-76.33 123.5,-76.33 123.5,-80.17 119.67,-84 115.83,-84"/>
<text text-anchor="middle" x="92" y="-68.8" font-family="Arial" font-size="14.00" fill="#c6c5fe">index.ts</text>
</g>
<!-- index.ts&#45;&gt;categories.module.ts -->
<g id="edge5" class="edge">
<title>index.ts&#45;&gt;categories.module.ts</title>
<path fill="none" stroke="#757575" d="M123.62,-72.5C175.59,-72.5 282.71,-72.5 357.38,-72.5"/>
<polygon fill="#757575" stroke="#757575" points="357.7,-76 367.7,-72.5 357.7,-69 357.7,-76"/>
</g>
<!-- list/categories&#45;list.module.ts -->
<g id="node9" class="node">
<title>list/categories&#45;list.module.ts</title>
<path fill="none" stroke="#cfffac" d="M522.83,-166C522.83,-166 355.17,-166 355.17,-166 351.33,-166 347.5,-162.17 347.5,-158.33 347.5,-158.33 347.5,-150.67 347.5,-150.67 347.5,-146.83 351.33,-143 355.17,-143 355.17,-143 522.83,-143 522.83,-143 526.67,-143 530.5,-146.83 530.5,-150.67 530.5,-150.67 530.5,-158.33 530.5,-158.33 530.5,-162.17 526.67,-166 522.83,-166"/>
<text text-anchor="middle" x="439" y="-150.8" font-family="Arial" font-size="14.00" fill="#cfffac">list/categories&#45;list.module.ts</text>
</g>
<!-- list/components/categories&#45;list&#45;item/categories&#45;list&#45;item.component.ts -->
<g id="node10" class="node">
<title>list/components/categories&#45;list&#45;item/categories&#45;list&#45;item.component.ts</title>
<path fill="none" stroke="#cfffac" d="M647.33,-248C647.33,-248 230.67,-248 230.67,-248 226.83,-248 223,-244.17 223,-240.33 223,-240.33 223,-232.67 223,-232.67 223,-228.83 226.83,-225 230.67,-225 230.67,-225 647.33,-225 647.33,-225 651.17,-225 655,-228.83 655,-232.67 655,-232.67 655,-240.33 655,-240.33 655,-244.17 651.17,-248 647.33,-248"/>
<text text-anchor="middle" x="439" y="-232.8" font-family="Arial" font-size="14.00" fill="#cfffac">list/components/categories&#45;list&#45;item/categories&#45;list&#45;item.component.ts</text>
</g>
<!-- list/components/categories&#45;list/categories&#45;list.component.ts -->
<g id="node11" class="node">
<title>list/components/categories&#45;list/categories&#45;list.component.ts</title>
<path fill="none" stroke="#cfffac" d="M616.83,-207C616.83,-207 261.17,-207 261.17,-207 257.33,-207 253.5,-203.17 253.5,-199.33 253.5,-199.33 253.5,-191.67 253.5,-191.67 253.5,-187.83 257.33,-184 261.17,-184 261.17,-184 616.83,-184 616.83,-184 620.67,-184 624.5,-187.83 624.5,-191.67 624.5,-191.67 624.5,-199.33 624.5,-199.33 624.5,-203.17 620.67,-207 616.83,-207"/>
<text text-anchor="middle" x="439" y="-191.8" font-family="Arial" font-size="14.00" fill="#cfffac">list/components/categories&#45;list/categories&#45;list.component.ts</text>
</g>
<!-- list/components/index.ts -->
<g id="node12" class="node">
<title>list/components/index.ts</title>
<path fill="none" stroke="#c6c5fe" d="M164.83,-227C164.83,-227 19.17,-227 19.17,-227 15.33,-227 11.5,-223.17 11.5,-219.33 11.5,-219.33 11.5,-211.67 11.5,-211.67 11.5,-207.83 15.33,-204 19.17,-204 19.17,-204 164.83,-204 164.83,-204 168.67,-204 172.5,-207.83 172.5,-211.67 172.5,-211.67 172.5,-219.33 172.5,-219.33 172.5,-223.17 168.67,-227 164.83,-227"/>
<text text-anchor="middle" x="92" y="-211.8" font-family="Arial" font-size="14.00" fill="#c6c5fe">list/components/index.ts</text>
</g>
<!-- list/components/index.ts&#45;&gt;list/components/categories&#45;list&#45;item/categories&#45;list&#45;item.component.ts -->
<g id="edge6" class="edge">
<title>list/components/index.ts&#45;&gt;list/components/categories&#45;list&#45;item/categories&#45;list&#45;item.component.ts</title>
<path fill="none" stroke="#757575" d="M172.58,-220.34C192.87,-221.58 215.6,-222.96 238.99,-224.39"/>
<polygon fill="#757575" stroke="#757575" points="238.86,-227.88 249.05,-225 239.29,-220.9 238.86,-227.88"/>
</g>
<!-- list/components/index.ts&#45;&gt;list/components/categories&#45;list/categories&#45;list.component.ts -->
<g id="edge7" class="edge">
<title>list/components/index.ts&#45;&gt;list/components/categories&#45;list/categories&#45;list.component.ts</title>
<path fill="none" stroke="#757575" d="M172.58,-210.89C194.01,-209.64 218.16,-208.24 242.94,-206.81"/>
<polygon fill="#757575" stroke="#757575" points="243.44,-210.29 253.22,-206.21 243.03,-203.3 243.44,-210.29"/>
</g>
<!-- list/index.ts -->
<g id="node13" class="node">
<title>list/index.ts</title>
<path fill="none" stroke="#c6c5fe" d="M125.83,-166C125.83,-166 58.17,-166 58.17,-166 54.33,-166 50.5,-162.17 50.5,-158.33 50.5,-158.33 50.5,-150.67 50.5,-150.67 50.5,-146.83 54.33,-143 58.17,-143 58.17,-143 125.83,-143 125.83,-143 129.67,-143 133.5,-146.83 133.5,-150.67 133.5,-150.67 133.5,-158.33 133.5,-158.33 133.5,-162.17 129.67,-166 125.83,-166"/>
<text text-anchor="middle" x="92" y="-150.8" font-family="Arial" font-size="14.00" fill="#c6c5fe">list/index.ts</text>
</g>
<!-- list/index.ts&#45;&gt;list/categories&#45;list.module.ts -->
<g id="edge8" class="edge">
<title>list/index.ts&#45;&gt;list/categories&#45;list.module.ts</title>
<path fill="none" stroke="#757575" d="M133.59,-154.5C183.23,-154.5 269.02,-154.5 336.9,-154.5"/>
<polygon fill="#757575" stroke="#757575" points="337.21,-158 347.21,-154.5 337.21,-151 337.21,-158"/>
</g>
</g>
</svg>
